<mxfile host="app.diagrams.net" modified="2024-01-22T13:05:18.863Z" agent="Mozilla/5.0 (Windows NT 10.0; Win64; x64) AppleWebKit/537.36 (KHTML, like Gecko) Chrome/120.0.0.0 Safari/537.36 Edg/120.0.0.0" etag="mbAJ8Wy-Y4DCq0BGx4hk" version="22.1.21" type="device" pages="2">
  <diagram id="R2lEEEUBdFMjLlhIrx00" name="SKEMA DATABASE">
    <mxGraphModel dx="-25" dy="484" grid="1" gridSize="10" guides="1" tooltips="1" connect="1" arrows="1" fold="1" page="1" pageScale="1" pageWidth="850" pageHeight="1100" math="0" shadow="0" extFonts="Permanent Marker^https://fonts.googleapis.com/css?family=Permanent+Marker">
      <root>
        <mxCell id="0" />
        <mxCell id="1" parent="0" />
        <mxCell id="WpfxDzGlzYKFKJCqzPRK-95" value="" style="edgeStyle=entityRelationEdgeStyle;endArrow=ERzeroToMany;startArrow=ERone;endFill=1;startFill=0;exitX=1;exitY=0.5;exitDx=0;exitDy=0;" parent="1" source="g9sZR9P15yEsQG1jrWq3-13" target="g9sZR9P15yEsQG1jrWq3-45" edge="1">
          <mxGeometry width="100" height="100" relative="1" as="geometry">
            <mxPoint x="1161" y="292.11" as="sourcePoint" />
            <mxPoint x="1160" y="650.0000000000001" as="targetPoint" />
            <Array as="points">
              <mxPoint x="1260" y="420" />
            </Array>
          </mxGeometry>
        </mxCell>
        <mxCell id="g9sZR9P15yEsQG1jrWq3-12" value="mst_user" style="shape=table;startSize=30;container=1;collapsible=1;childLayout=tableLayout;fixedRows=1;rowLines=0;fontStyle=1;align=center;resizeLast=1;html=1;fillColor=#008a00;strokeColor=#005700;fontColor=#ffffff;" parent="1" vertex="1">
          <mxGeometry x="950" y="100" width="300" height="150" as="geometry" />
        </mxCell>
        <mxCell id="g9sZR9P15yEsQG1jrWq3-13" value="" style="shape=tableRow;horizontal=0;startSize=0;swimlaneHead=0;swimlaneBody=0;fillColor=none;collapsible=0;dropTarget=0;points=[[0,0.5],[1,0.5]];portConstraint=eastwest;top=0;left=0;right=0;bottom=1;" parent="g9sZR9P15yEsQG1jrWq3-12" vertex="1">
          <mxGeometry y="30" width="300" height="30" as="geometry" />
        </mxCell>
        <mxCell id="g9sZR9P15yEsQG1jrWq3-14" value="PK" style="shape=partialRectangle;connectable=0;fillColor=none;top=0;left=0;bottom=0;right=0;fontStyle=1;overflow=hidden;whiteSpace=wrap;html=1;" parent="g9sZR9P15yEsQG1jrWq3-13" vertex="1">
          <mxGeometry width="30" height="30" as="geometry">
            <mxRectangle width="30" height="30" as="alternateBounds" />
          </mxGeometry>
        </mxCell>
        <mxCell id="g9sZR9P15yEsQG1jrWq3-15" value="id_user NOT NULL" style="shape=partialRectangle;connectable=0;fillColor=none;top=0;left=0;bottom=0;right=0;align=left;spacingLeft=6;fontStyle=5;overflow=hidden;whiteSpace=wrap;html=1;" parent="g9sZR9P15yEsQG1jrWq3-13" vertex="1">
          <mxGeometry x="30" width="270" height="30" as="geometry">
            <mxRectangle width="270" height="30" as="alternateBounds" />
          </mxGeometry>
        </mxCell>
        <mxCell id="g9sZR9P15yEsQG1jrWq3-16" value="" style="shape=tableRow;horizontal=0;startSize=0;swimlaneHead=0;swimlaneBody=0;fillColor=none;collapsible=0;dropTarget=0;points=[[0,0.5],[1,0.5]];portConstraint=eastwest;top=0;left=0;right=0;bottom=0;" parent="g9sZR9P15yEsQG1jrWq3-12" vertex="1">
          <mxGeometry y="60" width="300" height="30" as="geometry" />
        </mxCell>
        <mxCell id="g9sZR9P15yEsQG1jrWq3-17" value="" style="shape=partialRectangle;connectable=0;fillColor=none;top=0;left=0;bottom=0;right=0;editable=1;overflow=hidden;whiteSpace=wrap;html=1;" parent="g9sZR9P15yEsQG1jrWq3-16" vertex="1">
          <mxGeometry width="30" height="30" as="geometry">
            <mxRectangle width="30" height="30" as="alternateBounds" />
          </mxGeometry>
        </mxCell>
        <mxCell id="g9sZR9P15yEsQG1jrWq3-18" value="username varchar(15) NOT NULL" style="shape=partialRectangle;connectable=0;fillColor=none;top=0;left=0;bottom=0;right=0;align=left;spacingLeft=6;overflow=hidden;whiteSpace=wrap;html=1;" parent="g9sZR9P15yEsQG1jrWq3-16" vertex="1">
          <mxGeometry x="30" width="270" height="30" as="geometry">
            <mxRectangle width="270" height="30" as="alternateBounds" />
          </mxGeometry>
        </mxCell>
        <mxCell id="g9sZR9P15yEsQG1jrWq3-19" value="" style="shape=tableRow;horizontal=0;startSize=0;swimlaneHead=0;swimlaneBody=0;fillColor=none;collapsible=0;dropTarget=0;points=[[0,0.5],[1,0.5]];portConstraint=eastwest;top=0;left=0;right=0;bottom=0;" parent="g9sZR9P15yEsQG1jrWq3-12" vertex="1">
          <mxGeometry y="90" width="300" height="30" as="geometry" />
        </mxCell>
        <mxCell id="g9sZR9P15yEsQG1jrWq3-20" value="" style="shape=partialRectangle;connectable=0;fillColor=none;top=0;left=0;bottom=0;right=0;editable=1;overflow=hidden;whiteSpace=wrap;html=1;" parent="g9sZR9P15yEsQG1jrWq3-19" vertex="1">
          <mxGeometry width="30" height="30" as="geometry">
            <mxRectangle width="30" height="30" as="alternateBounds" />
          </mxGeometry>
        </mxCell>
        <mxCell id="g9sZR9P15yEsQG1jrWq3-21" value="password varchar(10) NOT NULL" style="shape=partialRectangle;connectable=0;fillColor=none;top=0;left=0;bottom=0;right=0;align=left;spacingLeft=6;overflow=hidden;whiteSpace=wrap;html=1;" parent="g9sZR9P15yEsQG1jrWq3-19" vertex="1">
          <mxGeometry x="30" width="270" height="30" as="geometry">
            <mxRectangle width="270" height="30" as="alternateBounds" />
          </mxGeometry>
        </mxCell>
        <mxCell id="g9sZR9P15yEsQG1jrWq3-22" value="" style="shape=tableRow;horizontal=0;startSize=0;swimlaneHead=0;swimlaneBody=0;fillColor=none;collapsible=0;dropTarget=0;points=[[0,0.5],[1,0.5]];portConstraint=eastwest;top=0;left=0;right=0;bottom=0;" parent="g9sZR9P15yEsQG1jrWq3-12" vertex="1">
          <mxGeometry y="120" width="300" height="30" as="geometry" />
        </mxCell>
        <mxCell id="g9sZR9P15yEsQG1jrWq3-23" value="" style="shape=partialRectangle;connectable=0;fillColor=none;top=0;left=0;bottom=0;right=0;editable=1;overflow=hidden;whiteSpace=wrap;html=1;" parent="g9sZR9P15yEsQG1jrWq3-22" vertex="1">
          <mxGeometry width="30" height="30" as="geometry">
            <mxRectangle width="30" height="30" as="alternateBounds" />
          </mxGeometry>
        </mxCell>
        <mxCell id="g9sZR9P15yEsQG1jrWq3-24" value="role enum(&#39;administrator&#39;,&#39;asisten&#39;,&#39;praktikan&#39;)" style="shape=partialRectangle;connectable=0;fillColor=none;top=0;left=0;bottom=0;right=0;align=left;spacingLeft=6;overflow=hidden;whiteSpace=wrap;html=1;" parent="g9sZR9P15yEsQG1jrWq3-22" vertex="1">
          <mxGeometry x="30" width="270" height="30" as="geometry">
            <mxRectangle width="270" height="30" as="alternateBounds" />
          </mxGeometry>
        </mxCell>
        <mxCell id="g9sZR9P15yEsQG1jrWq3-25" value="mst_administrator" style="shape=table;startSize=30;container=1;collapsible=1;childLayout=tableLayout;fixedRows=1;rowLines=0;fontStyle=1;align=center;resizeLast=1;html=1;fillColor=#008a00;fontColor=#ffffff;strokeColor=#005700;" parent="1" vertex="1">
          <mxGeometry x="950" y="300" width="300" height="120" as="geometry" />
        </mxCell>
        <mxCell id="g9sZR9P15yEsQG1jrWq3-26" value="" style="shape=tableRow;horizontal=0;startSize=0;swimlaneHead=0;swimlaneBody=0;fillColor=none;collapsible=0;dropTarget=0;points=[[0,0.5],[1,0.5]];portConstraint=eastwest;top=0;left=0;right=0;bottom=1;" parent="g9sZR9P15yEsQG1jrWq3-25" vertex="1">
          <mxGeometry y="30" width="300" height="30" as="geometry" />
        </mxCell>
        <mxCell id="g9sZR9P15yEsQG1jrWq3-27" value="PK" style="shape=partialRectangle;connectable=0;fillColor=none;top=0;left=0;bottom=0;right=0;fontStyle=1;overflow=hidden;whiteSpace=wrap;html=1;" parent="g9sZR9P15yEsQG1jrWq3-26" vertex="1">
          <mxGeometry width="30" height="30" as="geometry">
            <mxRectangle width="30" height="30" as="alternateBounds" />
          </mxGeometry>
        </mxCell>
        <mxCell id="g9sZR9P15yEsQG1jrWq3-28" value="id_admin int NOT NULL" style="shape=partialRectangle;connectable=0;fillColor=none;top=0;left=0;bottom=0;right=0;align=left;spacingLeft=6;fontStyle=5;overflow=hidden;whiteSpace=wrap;html=1;" parent="g9sZR9P15yEsQG1jrWq3-26" vertex="1">
          <mxGeometry x="30" width="270" height="30" as="geometry">
            <mxRectangle width="270" height="30" as="alternateBounds" />
          </mxGeometry>
        </mxCell>
        <mxCell id="g9sZR9P15yEsQG1jrWq3-29" value="" style="shape=tableRow;horizontal=0;startSize=0;swimlaneHead=0;swimlaneBody=0;fillColor=none;collapsible=0;dropTarget=0;points=[[0,0.5],[1,0.5]];portConstraint=eastwest;top=0;left=0;right=0;bottom=0;" parent="g9sZR9P15yEsQG1jrWq3-25" vertex="1">
          <mxGeometry y="60" width="300" height="30" as="geometry" />
        </mxCell>
        <mxCell id="g9sZR9P15yEsQG1jrWq3-30" value="" style="shape=partialRectangle;connectable=0;fillColor=none;top=0;left=0;bottom=0;right=0;editable=1;overflow=hidden;whiteSpace=wrap;html=1;" parent="g9sZR9P15yEsQG1jrWq3-29" vertex="1">
          <mxGeometry width="30" height="30" as="geometry">
            <mxRectangle width="30" height="30" as="alternateBounds" />
          </mxGeometry>
        </mxCell>
        <mxCell id="g9sZR9P15yEsQG1jrWq3-31" value="nama_admin varchar(50) NOT NULL" style="shape=partialRectangle;connectable=0;fillColor=none;top=0;left=0;bottom=0;right=0;align=left;spacingLeft=6;overflow=hidden;whiteSpace=wrap;html=1;" parent="g9sZR9P15yEsQG1jrWq3-29" vertex="1">
          <mxGeometry x="30" width="270" height="30" as="geometry">
            <mxRectangle width="270" height="30" as="alternateBounds" />
          </mxGeometry>
        </mxCell>
        <mxCell id="g9sZR9P15yEsQG1jrWq3-32" value="" style="shape=tableRow;horizontal=0;startSize=0;swimlaneHead=0;swimlaneBody=0;fillColor=none;collapsible=0;dropTarget=0;points=[[0,0.5],[1,0.5]];portConstraint=eastwest;top=0;left=0;right=0;bottom=0;" parent="g9sZR9P15yEsQG1jrWq3-25" vertex="1">
          <mxGeometry y="90" width="300" height="30" as="geometry" />
        </mxCell>
        <mxCell id="g9sZR9P15yEsQG1jrWq3-33" value="FK" style="shape=partialRectangle;connectable=0;fillColor=none;top=0;left=0;bottom=0;right=0;editable=1;overflow=hidden;whiteSpace=wrap;html=1;" parent="g9sZR9P15yEsQG1jrWq3-32" vertex="1">
          <mxGeometry width="30" height="30" as="geometry">
            <mxRectangle width="30" height="30" as="alternateBounds" />
          </mxGeometry>
        </mxCell>
        <mxCell id="g9sZR9P15yEsQG1jrWq3-34" value="id_user int NOT NULL" style="shape=partialRectangle;connectable=0;fillColor=none;top=0;left=0;bottom=0;right=0;align=left;spacingLeft=6;overflow=hidden;whiteSpace=wrap;html=1;" parent="g9sZR9P15yEsQG1jrWq3-32" vertex="1">
          <mxGeometry x="30" width="270" height="30" as="geometry">
            <mxRectangle width="270" height="30" as="alternateBounds" />
          </mxGeometry>
        </mxCell>
        <mxCell id="g9sZR9P15yEsQG1jrWq3-38" value="mst_asisten" style="shape=table;startSize=30;container=1;collapsible=1;childLayout=tableLayout;fixedRows=1;rowLines=0;fontStyle=1;align=center;resizeLast=1;html=1;fillColor=#008a00;fontColor=#ffffff;strokeColor=#005700;" parent="1" vertex="1">
          <mxGeometry x="920" y="445" width="330" height="210" as="geometry" />
        </mxCell>
        <mxCell id="g9sZR9P15yEsQG1jrWq3-39" value="" style="shape=tableRow;horizontal=0;startSize=0;swimlaneHead=0;swimlaneBody=0;fillColor=none;collapsible=0;dropTarget=0;points=[[0,0.5],[1,0.5]];portConstraint=eastwest;top=0;left=0;right=0;bottom=1;" parent="g9sZR9P15yEsQG1jrWq3-38" vertex="1">
          <mxGeometry y="30" width="330" height="30" as="geometry" />
        </mxCell>
        <mxCell id="g9sZR9P15yEsQG1jrWq3-40" value="PK" style="shape=partialRectangle;connectable=0;fillColor=none;top=0;left=0;bottom=0;right=0;fontStyle=1;overflow=hidden;whiteSpace=wrap;html=1;" parent="g9sZR9P15yEsQG1jrWq3-39" vertex="1">
          <mxGeometry width="30" height="30" as="geometry">
            <mxRectangle width="30" height="30" as="alternateBounds" />
          </mxGeometry>
        </mxCell>
        <mxCell id="g9sZR9P15yEsQG1jrWq3-41" value="id_asisten int NOT NULL" style="shape=partialRectangle;connectable=0;fillColor=none;top=0;left=0;bottom=0;right=0;align=left;spacingLeft=6;fontStyle=5;overflow=hidden;whiteSpace=wrap;html=1;" parent="g9sZR9P15yEsQG1jrWq3-39" vertex="1">
          <mxGeometry x="30" width="300" height="30" as="geometry">
            <mxRectangle width="300" height="30" as="alternateBounds" />
          </mxGeometry>
        </mxCell>
        <mxCell id="De_63PwcYuU3ZTPEiGWg-10" style="shape=tableRow;horizontal=0;startSize=0;swimlaneHead=0;swimlaneBody=0;fillColor=none;collapsible=0;dropTarget=0;points=[[0,0.5],[1,0.5]];portConstraint=eastwest;top=0;left=0;right=0;bottom=0;" parent="g9sZR9P15yEsQG1jrWq3-38" vertex="1">
          <mxGeometry y="60" width="330" height="30" as="geometry" />
        </mxCell>
        <mxCell id="De_63PwcYuU3ZTPEiGWg-11" value="UNI" style="shape=partialRectangle;connectable=0;fillColor=none;top=0;left=0;bottom=0;right=0;editable=1;overflow=hidden;whiteSpace=wrap;html=1;" parent="De_63PwcYuU3ZTPEiGWg-10" vertex="1">
          <mxGeometry width="30" height="30" as="geometry">
            <mxRectangle width="30" height="30" as="alternateBounds" />
          </mxGeometry>
        </mxCell>
        <mxCell id="De_63PwcYuU3ZTPEiGWg-12" value="nim_asisten varchar(11) NOT NULL" style="shape=partialRectangle;connectable=0;fillColor=none;top=0;left=0;bottom=0;right=0;align=left;spacingLeft=6;overflow=hidden;whiteSpace=wrap;html=1;" parent="De_63PwcYuU3ZTPEiGWg-10" vertex="1">
          <mxGeometry x="30" width="300" height="30" as="geometry">
            <mxRectangle width="300" height="30" as="alternateBounds" />
          </mxGeometry>
        </mxCell>
        <mxCell id="g9sZR9P15yEsQG1jrWq3-42" value="" style="shape=tableRow;horizontal=0;startSize=0;swimlaneHead=0;swimlaneBody=0;fillColor=none;collapsible=0;dropTarget=0;points=[[0,0.5],[1,0.5]];portConstraint=eastwest;top=0;left=0;right=0;bottom=0;" parent="g9sZR9P15yEsQG1jrWq3-38" vertex="1">
          <mxGeometry y="90" width="330" height="30" as="geometry" />
        </mxCell>
        <mxCell id="g9sZR9P15yEsQG1jrWq3-43" value="" style="shape=partialRectangle;connectable=0;fillColor=none;top=0;left=0;bottom=0;right=0;editable=1;overflow=hidden;whiteSpace=wrap;html=1;" parent="g9sZR9P15yEsQG1jrWq3-42" vertex="1">
          <mxGeometry width="30" height="30" as="geometry">
            <mxRectangle width="30" height="30" as="alternateBounds" />
          </mxGeometry>
        </mxCell>
        <mxCell id="g9sZR9P15yEsQG1jrWq3-44" value="nama_asisten varchar(50) NOT NULL" style="shape=partialRectangle;connectable=0;fillColor=none;top=0;left=0;bottom=0;right=0;align=left;spacingLeft=6;overflow=hidden;whiteSpace=wrap;html=1;" parent="g9sZR9P15yEsQG1jrWq3-42" vertex="1">
          <mxGeometry x="30" width="300" height="30" as="geometry">
            <mxRectangle width="300" height="30" as="alternateBounds" />
          </mxGeometry>
        </mxCell>
        <mxCell id="2ttjh6oydAQfgCDGTn-r-30" style="shape=tableRow;horizontal=0;startSize=0;swimlaneHead=0;swimlaneBody=0;fillColor=none;collapsible=0;dropTarget=0;points=[[0,0.5],[1,0.5]];portConstraint=eastwest;top=0;left=0;right=0;bottom=0;" parent="g9sZR9P15yEsQG1jrWq3-38" vertex="1">
          <mxGeometry y="120" width="330" height="30" as="geometry" />
        </mxCell>
        <mxCell id="2ttjh6oydAQfgCDGTn-r-31" style="shape=partialRectangle;connectable=0;fillColor=none;top=0;left=0;bottom=0;right=0;editable=1;overflow=hidden;whiteSpace=wrap;html=1;" parent="2ttjh6oydAQfgCDGTn-r-30" vertex="1">
          <mxGeometry width="30" height="30" as="geometry">
            <mxRectangle width="30" height="30" as="alternateBounds" />
          </mxGeometry>
        </mxCell>
        <mxCell id="2ttjh6oydAQfgCDGTn-r-32" value="kelas char(5) NOT NULL" style="shape=partialRectangle;connectable=0;fillColor=none;top=0;left=0;bottom=0;right=0;align=left;spacingLeft=6;overflow=hidden;whiteSpace=wrap;html=1;" parent="2ttjh6oydAQfgCDGTn-r-30" vertex="1">
          <mxGeometry x="30" width="300" height="30" as="geometry">
            <mxRectangle width="300" height="30" as="alternateBounds" />
          </mxGeometry>
        </mxCell>
        <mxCell id="2ttjh6oydAQfgCDGTn-r-33" style="shape=tableRow;horizontal=0;startSize=0;swimlaneHead=0;swimlaneBody=0;fillColor=none;collapsible=0;dropTarget=0;points=[[0,0.5],[1,0.5]];portConstraint=eastwest;top=0;left=0;right=0;bottom=0;" parent="g9sZR9P15yEsQG1jrWq3-38" vertex="1">
          <mxGeometry y="150" width="330" height="30" as="geometry" />
        </mxCell>
        <mxCell id="2ttjh6oydAQfgCDGTn-r-34" style="shape=partialRectangle;connectable=0;fillColor=none;top=0;left=0;bottom=0;right=0;editable=1;overflow=hidden;whiteSpace=wrap;html=1;" parent="2ttjh6oydAQfgCDGTn-r-33" vertex="1">
          <mxGeometry width="30" height="30" as="geometry">
            <mxRectangle width="30" height="30" as="alternateBounds" />
          </mxGeometry>
        </mxCell>
        <mxCell id="2ttjh6oydAQfgCDGTn-r-35" value="prodi enum(&#39;TI&#39;, &#39;SI&#39;)" style="shape=partialRectangle;connectable=0;fillColor=none;top=0;left=0;bottom=0;right=0;align=left;spacingLeft=6;overflow=hidden;whiteSpace=wrap;html=1;" parent="2ttjh6oydAQfgCDGTn-r-33" vertex="1">
          <mxGeometry x="30" width="300" height="30" as="geometry">
            <mxRectangle width="300" height="30" as="alternateBounds" />
          </mxGeometry>
        </mxCell>
        <mxCell id="g9sZR9P15yEsQG1jrWq3-45" value="" style="shape=tableRow;horizontal=0;startSize=0;swimlaneHead=0;swimlaneBody=0;fillColor=none;collapsible=0;dropTarget=0;points=[[0,0.5],[1,0.5]];portConstraint=eastwest;top=0;left=0;right=0;bottom=0;" parent="g9sZR9P15yEsQG1jrWq3-38" vertex="1">
          <mxGeometry y="180" width="330" height="30" as="geometry" />
        </mxCell>
        <mxCell id="g9sZR9P15yEsQG1jrWq3-46" value="FK" style="shape=partialRectangle;connectable=0;fillColor=none;top=0;left=0;bottom=0;right=0;editable=1;overflow=hidden;whiteSpace=wrap;html=1;" parent="g9sZR9P15yEsQG1jrWq3-45" vertex="1">
          <mxGeometry width="30" height="30" as="geometry">
            <mxRectangle width="30" height="30" as="alternateBounds" />
          </mxGeometry>
        </mxCell>
        <mxCell id="g9sZR9P15yEsQG1jrWq3-47" value="id_user int NOT NULL" style="shape=partialRectangle;connectable=0;fillColor=none;top=0;left=0;bottom=0;right=0;align=left;spacingLeft=6;overflow=hidden;whiteSpace=wrap;html=1;" parent="g9sZR9P15yEsQG1jrWq3-45" vertex="1">
          <mxGeometry x="30" width="300" height="30" as="geometry">
            <mxRectangle width="300" height="30" as="alternateBounds" />
          </mxGeometry>
        </mxCell>
        <mxCell id="g9sZR9P15yEsQG1jrWq3-51" value="mst_praktikan" style="shape=table;startSize=30;container=1;collapsible=1;childLayout=tableLayout;fixedRows=1;rowLines=0;fontStyle=1;align=center;resizeLast=1;html=1;fillColor=#008a00;fontColor=#ffffff;strokeColor=#005700;" parent="1" vertex="1">
          <mxGeometry x="960" y="690" width="290" height="300" as="geometry" />
        </mxCell>
        <mxCell id="g9sZR9P15yEsQG1jrWq3-52" value="" style="shape=tableRow;horizontal=0;startSize=0;swimlaneHead=0;swimlaneBody=0;fillColor=none;collapsible=0;dropTarget=0;points=[[0,0.5],[1,0.5]];portConstraint=eastwest;top=0;left=0;right=0;bottom=1;" parent="g9sZR9P15yEsQG1jrWq3-51" vertex="1">
          <mxGeometry y="30" width="290" height="30" as="geometry" />
        </mxCell>
        <mxCell id="g9sZR9P15yEsQG1jrWq3-53" value="PK" style="shape=partialRectangle;connectable=0;fillColor=none;top=0;left=0;bottom=0;right=0;fontStyle=1;overflow=hidden;whiteSpace=wrap;html=1;" parent="g9sZR9P15yEsQG1jrWq3-52" vertex="1">
          <mxGeometry width="30" height="30" as="geometry">
            <mxRectangle width="30" height="30" as="alternateBounds" />
          </mxGeometry>
        </mxCell>
        <mxCell id="g9sZR9P15yEsQG1jrWq3-54" value="id_praktikan int NOT NULL" style="shape=partialRectangle;connectable=0;fillColor=none;top=0;left=0;bottom=0;right=0;align=left;spacingLeft=6;fontStyle=5;overflow=hidden;whiteSpace=wrap;html=1;" parent="g9sZR9P15yEsQG1jrWq3-52" vertex="1">
          <mxGeometry x="30" width="260" height="30" as="geometry">
            <mxRectangle width="260" height="30" as="alternateBounds" />
          </mxGeometry>
        </mxCell>
        <mxCell id="De_63PwcYuU3ZTPEiGWg-13" style="shape=tableRow;horizontal=0;startSize=0;swimlaneHead=0;swimlaneBody=0;fillColor=none;collapsible=0;dropTarget=0;points=[[0,0.5],[1,0.5]];portConstraint=eastwest;top=0;left=0;right=0;bottom=0;" parent="g9sZR9P15yEsQG1jrWq3-51" vertex="1">
          <mxGeometry y="60" width="290" height="30" as="geometry" />
        </mxCell>
        <mxCell id="De_63PwcYuU3ZTPEiGWg-14" value="UNI" style="shape=partialRectangle;connectable=0;fillColor=none;top=0;left=0;bottom=0;right=0;editable=1;overflow=hidden;whiteSpace=wrap;html=1;" parent="De_63PwcYuU3ZTPEiGWg-13" vertex="1">
          <mxGeometry width="30" height="30" as="geometry">
            <mxRectangle width="30" height="30" as="alternateBounds" />
          </mxGeometry>
        </mxCell>
        <mxCell id="De_63PwcYuU3ZTPEiGWg-15" value="nim_praktikan varchar(11) NOT NULL" style="shape=partialRectangle;connectable=0;fillColor=none;top=0;left=0;bottom=0;right=0;align=left;spacingLeft=6;overflow=hidden;whiteSpace=wrap;html=1;" parent="De_63PwcYuU3ZTPEiGWg-13" vertex="1">
          <mxGeometry x="30" width="260" height="30" as="geometry">
            <mxRectangle width="260" height="30" as="alternateBounds" />
          </mxGeometry>
        </mxCell>
        <mxCell id="g9sZR9P15yEsQG1jrWq3-55" value="" style="shape=tableRow;horizontal=0;startSize=0;swimlaneHead=0;swimlaneBody=0;fillColor=none;collapsible=0;dropTarget=0;points=[[0,0.5],[1,0.5]];portConstraint=eastwest;top=0;left=0;right=0;bottom=0;" parent="g9sZR9P15yEsQG1jrWq3-51" vertex="1">
          <mxGeometry y="90" width="290" height="30" as="geometry" />
        </mxCell>
        <mxCell id="g9sZR9P15yEsQG1jrWq3-56" value="" style="shape=partialRectangle;connectable=0;fillColor=none;top=0;left=0;bottom=0;right=0;editable=1;overflow=hidden;whiteSpace=wrap;html=1;" parent="g9sZR9P15yEsQG1jrWq3-55" vertex="1">
          <mxGeometry width="30" height="30" as="geometry">
            <mxRectangle width="30" height="30" as="alternateBounds" />
          </mxGeometry>
        </mxCell>
        <mxCell id="g9sZR9P15yEsQG1jrWq3-57" value="nama_praktikan Varchar(50) NOT NULL" style="shape=partialRectangle;connectable=0;fillColor=none;top=0;left=0;bottom=0;right=0;align=left;spacingLeft=6;overflow=hidden;whiteSpace=wrap;html=1;" parent="g9sZR9P15yEsQG1jrWq3-55" vertex="1">
          <mxGeometry x="30" width="260" height="30" as="geometry">
            <mxRectangle width="260" height="30" as="alternateBounds" />
          </mxGeometry>
        </mxCell>
        <mxCell id="Mq-pQiOx1iUdSkv1KGWm-1" style="shape=tableRow;horizontal=0;startSize=0;swimlaneHead=0;swimlaneBody=0;fillColor=none;collapsible=0;dropTarget=0;points=[[0,0.5],[1,0.5]];portConstraint=eastwest;top=0;left=0;right=0;bottom=0;" parent="g9sZR9P15yEsQG1jrWq3-51" vertex="1">
          <mxGeometry y="120" width="290" height="30" as="geometry" />
        </mxCell>
        <mxCell id="Mq-pQiOx1iUdSkv1KGWm-2" style="shape=partialRectangle;connectable=0;fillColor=none;top=0;left=0;bottom=0;right=0;editable=1;overflow=hidden;whiteSpace=wrap;html=1;" parent="Mq-pQiOx1iUdSkv1KGWm-1" vertex="1">
          <mxGeometry width="30" height="30" as="geometry">
            <mxRectangle width="30" height="30" as="alternateBounds" />
          </mxGeometry>
        </mxCell>
        <mxCell id="Mq-pQiOx1iUdSkv1KGWm-3" value="jk enum(&#39;Laki-laki&#39;, &#39;Perempuan&#39;)" style="shape=partialRectangle;connectable=0;fillColor=none;top=0;left=0;bottom=0;right=0;align=left;spacingLeft=6;overflow=hidden;whiteSpace=wrap;html=1;" parent="Mq-pQiOx1iUdSkv1KGWm-1" vertex="1">
          <mxGeometry x="30" width="260" height="30" as="geometry">
            <mxRectangle width="260" height="30" as="alternateBounds" />
          </mxGeometry>
        </mxCell>
        <mxCell id="De_63PwcYuU3ZTPEiGWg-16" style="shape=tableRow;horizontal=0;startSize=0;swimlaneHead=0;swimlaneBody=0;fillColor=none;collapsible=0;dropTarget=0;points=[[0,0.5],[1,0.5]];portConstraint=eastwest;top=0;left=0;right=0;bottom=0;" parent="g9sZR9P15yEsQG1jrWq3-51" vertex="1">
          <mxGeometry y="150" width="290" height="30" as="geometry" />
        </mxCell>
        <mxCell id="De_63PwcYuU3ZTPEiGWg-17" style="shape=partialRectangle;connectable=0;fillColor=none;top=0;left=0;bottom=0;right=0;editable=1;overflow=hidden;whiteSpace=wrap;html=1;" parent="De_63PwcYuU3ZTPEiGWg-16" vertex="1">
          <mxGeometry width="30" height="30" as="geometry">
            <mxRectangle width="30" height="30" as="alternateBounds" />
          </mxGeometry>
        </mxCell>
        <mxCell id="De_63PwcYuU3ZTPEiGWg-18" value="prodi enum(&#39;Teknik Informatika&#39;, &#39;SI&#39;)" style="shape=partialRectangle;connectable=0;fillColor=none;top=0;left=0;bottom=0;right=0;align=left;spacingLeft=6;overflow=hidden;whiteSpace=wrap;html=1;" parent="De_63PwcYuU3ZTPEiGWg-16" vertex="1">
          <mxGeometry x="30" width="260" height="30" as="geometry">
            <mxRectangle width="260" height="30" as="alternateBounds" />
          </mxGeometry>
        </mxCell>
        <mxCell id="De_63PwcYuU3ZTPEiGWg-1" style="shape=tableRow;horizontal=0;startSize=0;swimlaneHead=0;swimlaneBody=0;fillColor=none;collapsible=0;dropTarget=0;points=[[0,0.5],[1,0.5]];portConstraint=eastwest;top=0;left=0;right=0;bottom=0;" parent="g9sZR9P15yEsQG1jrWq3-51" vertex="1">
          <mxGeometry y="180" width="290" height="30" as="geometry" />
        </mxCell>
        <mxCell id="De_63PwcYuU3ZTPEiGWg-2" style="shape=partialRectangle;connectable=0;fillColor=none;top=0;left=0;bottom=0;right=0;editable=1;overflow=hidden;whiteSpace=wrap;html=1;" parent="De_63PwcYuU3ZTPEiGWg-1" vertex="1">
          <mxGeometry width="30" height="30" as="geometry">
            <mxRectangle width="30" height="30" as="alternateBounds" />
          </mxGeometry>
        </mxCell>
        <mxCell id="De_63PwcYuU3ZTPEiGWg-3" value="email varchar(50) NOT NULL" style="shape=partialRectangle;connectable=0;fillColor=none;top=0;left=0;bottom=0;right=0;align=left;spacingLeft=6;overflow=hidden;whiteSpace=wrap;html=1;" parent="De_63PwcYuU3ZTPEiGWg-1" vertex="1">
          <mxGeometry x="30" width="260" height="30" as="geometry">
            <mxRectangle width="260" height="30" as="alternateBounds" />
          </mxGeometry>
        </mxCell>
        <mxCell id="De_63PwcYuU3ZTPEiGWg-4" style="shape=tableRow;horizontal=0;startSize=0;swimlaneHead=0;swimlaneBody=0;fillColor=none;collapsible=0;dropTarget=0;points=[[0,0.5],[1,0.5]];portConstraint=eastwest;top=0;left=0;right=0;bottom=0;" parent="g9sZR9P15yEsQG1jrWq3-51" vertex="1">
          <mxGeometry y="210" width="290" height="30" as="geometry" />
        </mxCell>
        <mxCell id="De_63PwcYuU3ZTPEiGWg-5" style="shape=partialRectangle;connectable=0;fillColor=none;top=0;left=0;bottom=0;right=0;editable=1;overflow=hidden;whiteSpace=wrap;html=1;" parent="De_63PwcYuU3ZTPEiGWg-4" vertex="1">
          <mxGeometry width="30" height="30" as="geometry">
            <mxRectangle width="30" height="30" as="alternateBounds" />
          </mxGeometry>
        </mxCell>
        <mxCell id="De_63PwcYuU3ZTPEiGWg-6" value="no_hp varchar(20) NOT NULL" style="shape=partialRectangle;connectable=0;fillColor=none;top=0;left=0;bottom=0;right=0;align=left;spacingLeft=6;overflow=hidden;whiteSpace=wrap;html=1;" parent="De_63PwcYuU3ZTPEiGWg-4" vertex="1">
          <mxGeometry x="30" width="260" height="30" as="geometry">
            <mxRectangle width="260" height="30" as="alternateBounds" />
          </mxGeometry>
        </mxCell>
        <mxCell id="g9sZR9P15yEsQG1jrWq3-61" value="" style="shape=tableRow;horizontal=0;startSize=0;swimlaneHead=0;swimlaneBody=0;fillColor=none;collapsible=0;dropTarget=0;points=[[0,0.5],[1,0.5]];portConstraint=eastwest;top=0;left=0;right=0;bottom=0;" parent="g9sZR9P15yEsQG1jrWq3-51" vertex="1">
          <mxGeometry y="240" width="290" height="30" as="geometry" />
        </mxCell>
        <mxCell id="g9sZR9P15yEsQG1jrWq3-62" value="FK1" style="shape=partialRectangle;connectable=0;fillColor=none;top=0;left=0;bottom=0;right=0;editable=1;overflow=hidden;whiteSpace=wrap;html=1;" parent="g9sZR9P15yEsQG1jrWq3-61" vertex="1">
          <mxGeometry width="30" height="30" as="geometry">
            <mxRectangle width="30" height="30" as="alternateBounds" />
          </mxGeometry>
        </mxCell>
        <mxCell id="g9sZR9P15yEsQG1jrWq3-63" value="id_user int NOT NULL" style="shape=partialRectangle;connectable=0;fillColor=none;top=0;left=0;bottom=0;right=0;align=left;spacingLeft=6;overflow=hidden;whiteSpace=wrap;html=1;" parent="g9sZR9P15yEsQG1jrWq3-61" vertex="1">
          <mxGeometry x="30" width="260" height="30" as="geometry">
            <mxRectangle width="260" height="30" as="alternateBounds" />
          </mxGeometry>
        </mxCell>
        <mxCell id="g9sZR9P15yEsQG1jrWq3-58" value="" style="shape=tableRow;horizontal=0;startSize=0;swimlaneHead=0;swimlaneBody=0;fillColor=none;collapsible=0;dropTarget=0;points=[[0,0.5],[1,0.5]];portConstraint=eastwest;top=0;left=0;right=0;bottom=0;" parent="g9sZR9P15yEsQG1jrWq3-51" vertex="1">
          <mxGeometry y="270" width="290" height="30" as="geometry" />
        </mxCell>
        <mxCell id="g9sZR9P15yEsQG1jrWq3-59" value="FK2" style="shape=partialRectangle;connectable=0;fillColor=none;top=0;left=0;bottom=0;right=0;editable=1;overflow=hidden;whiteSpace=wrap;html=1;" parent="g9sZR9P15yEsQG1jrWq3-58" vertex="1">
          <mxGeometry width="30" height="30" as="geometry">
            <mxRectangle width="30" height="30" as="alternateBounds" />
          </mxGeometry>
        </mxCell>
        <mxCell id="g9sZR9P15yEsQG1jrWq3-60" value="id_frekuensi int NOT NULL" style="shape=partialRectangle;connectable=0;fillColor=none;top=0;left=0;bottom=0;right=0;align=left;spacingLeft=6;overflow=hidden;whiteSpace=wrap;html=1;" parent="g9sZR9P15yEsQG1jrWq3-58" vertex="1">
          <mxGeometry x="30" width="260" height="30" as="geometry">
            <mxRectangle width="260" height="30" as="alternateBounds" />
          </mxGeometry>
        </mxCell>
        <mxCell id="g9sZR9P15yEsQG1jrWq3-64" value="trx_frekuensi" style="shape=table;startSize=30;container=1;collapsible=1;childLayout=tableLayout;fixedRows=1;rowLines=0;fontStyle=1;align=center;resizeLast=1;html=1;fillColor=#0050ef;fontColor=#ffffff;strokeColor=#001DBC;" parent="1" vertex="1">
          <mxGeometry x="1400" y="115" width="310" height="180" as="geometry" />
        </mxCell>
        <mxCell id="g9sZR9P15yEsQG1jrWq3-65" value="" style="shape=tableRow;horizontal=0;startSize=0;swimlaneHead=0;swimlaneBody=0;fillColor=none;collapsible=0;dropTarget=0;points=[[0,0.5],[1,0.5]];portConstraint=eastwest;top=0;left=0;right=0;bottom=1;" parent="g9sZR9P15yEsQG1jrWq3-64" vertex="1">
          <mxGeometry y="30" width="310" height="30" as="geometry" />
        </mxCell>
        <mxCell id="g9sZR9P15yEsQG1jrWq3-66" value="PK" style="shape=partialRectangle;connectable=0;fillColor=none;top=0;left=0;bottom=0;right=0;fontStyle=1;overflow=hidden;whiteSpace=wrap;html=1;" parent="g9sZR9P15yEsQG1jrWq3-65" vertex="1">
          <mxGeometry width="30" height="30" as="geometry">
            <mxRectangle width="30" height="30" as="alternateBounds" />
          </mxGeometry>
        </mxCell>
        <mxCell id="g9sZR9P15yEsQG1jrWq3-67" value="id_frekuensi int NOT NULL" style="shape=partialRectangle;connectable=0;fillColor=none;top=0;left=0;bottom=0;right=0;align=left;spacingLeft=6;fontStyle=5;overflow=hidden;whiteSpace=wrap;html=1;" parent="g9sZR9P15yEsQG1jrWq3-65" vertex="1">
          <mxGeometry x="30" width="280" height="30" as="geometry">
            <mxRectangle width="280" height="30" as="alternateBounds" />
          </mxGeometry>
        </mxCell>
        <mxCell id="De_63PwcYuU3ZTPEiGWg-7" style="shape=tableRow;horizontal=0;startSize=0;swimlaneHead=0;swimlaneBody=0;fillColor=none;collapsible=0;dropTarget=0;points=[[0,0.5],[1,0.5]];portConstraint=eastwest;top=0;left=0;right=0;bottom=0;" parent="g9sZR9P15yEsQG1jrWq3-64" vertex="1">
          <mxGeometry y="60" width="310" height="30" as="geometry" />
        </mxCell>
        <mxCell id="De_63PwcYuU3ZTPEiGWg-8" style="shape=partialRectangle;connectable=0;fillColor=none;top=0;left=0;bottom=0;right=0;editable=1;overflow=hidden;whiteSpace=wrap;html=1;" parent="De_63PwcYuU3ZTPEiGWg-7" vertex="1">
          <mxGeometry width="30" height="30" as="geometry">
            <mxRectangle width="30" height="30" as="alternateBounds" />
          </mxGeometry>
        </mxCell>
        <mxCell id="De_63PwcYuU3ZTPEiGWg-9" value="nama_frekuensi varchar(10) NOT NULL" style="shape=partialRectangle;connectable=0;fillColor=none;top=0;left=0;bottom=0;right=0;align=left;spacingLeft=6;overflow=hidden;whiteSpace=wrap;html=1;" parent="De_63PwcYuU3ZTPEiGWg-7" vertex="1">
          <mxGeometry x="30" width="280" height="30" as="geometry">
            <mxRectangle width="280" height="30" as="alternateBounds" />
          </mxGeometry>
        </mxCell>
        <mxCell id="g9sZR9P15yEsQG1jrWq3-68" value="" style="shape=tableRow;horizontal=0;startSize=0;swimlaneHead=0;swimlaneBody=0;fillColor=none;collapsible=0;dropTarget=0;points=[[0,0.5],[1,0.5]];portConstraint=eastwest;top=0;left=0;right=0;bottom=0;" parent="g9sZR9P15yEsQG1jrWq3-64" vertex="1">
          <mxGeometry y="90" width="310" height="30" as="geometry" />
        </mxCell>
        <mxCell id="g9sZR9P15yEsQG1jrWq3-69" value="" style="shape=partialRectangle;connectable=0;fillColor=none;top=0;left=0;bottom=0;right=0;editable=1;overflow=hidden;whiteSpace=wrap;html=1;" parent="g9sZR9P15yEsQG1jrWq3-68" vertex="1">
          <mxGeometry width="30" height="30" as="geometry">
            <mxRectangle width="30" height="30" as="alternateBounds" />
          </mxGeometry>
        </mxCell>
        <mxCell id="g9sZR9P15yEsQG1jrWq3-70" value="kelas char(5) NOT NULL" style="shape=partialRectangle;connectable=0;fillColor=none;top=0;left=0;bottom=0;right=0;align=left;spacingLeft=6;overflow=hidden;whiteSpace=wrap;html=1;" parent="g9sZR9P15yEsQG1jrWq3-68" vertex="1">
          <mxGeometry x="30" width="280" height="30" as="geometry">
            <mxRectangle width="280" height="30" as="alternateBounds" />
          </mxGeometry>
        </mxCell>
        <mxCell id="2ttjh6oydAQfgCDGTn-r-19" style="shape=tableRow;horizontal=0;startSize=0;swimlaneHead=0;swimlaneBody=0;fillColor=none;collapsible=0;dropTarget=0;points=[[0,0.5],[1,0.5]];portConstraint=eastwest;top=0;left=0;right=0;bottom=0;" parent="g9sZR9P15yEsQG1jrWq3-64" vertex="1">
          <mxGeometry y="120" width="310" height="30" as="geometry" />
        </mxCell>
        <mxCell id="2ttjh6oydAQfgCDGTn-r-20" value="FK1" style="shape=partialRectangle;connectable=0;fillColor=none;top=0;left=0;bottom=0;right=0;editable=1;overflow=hidden;whiteSpace=wrap;html=1;" parent="2ttjh6oydAQfgCDGTn-r-19" vertex="1">
          <mxGeometry width="30" height="30" as="geometry">
            <mxRectangle width="30" height="30" as="alternateBounds" />
          </mxGeometry>
        </mxCell>
        <mxCell id="2ttjh6oydAQfgCDGTn-r-21" value="id_dosen int NOT NULL" style="shape=partialRectangle;connectable=0;fillColor=none;top=0;left=0;bottom=0;right=0;align=left;spacingLeft=6;overflow=hidden;whiteSpace=wrap;html=1;" parent="2ttjh6oydAQfgCDGTn-r-19" vertex="1">
          <mxGeometry x="30" width="280" height="30" as="geometry">
            <mxRectangle width="280" height="30" as="alternateBounds" />
          </mxGeometry>
        </mxCell>
        <mxCell id="2ttjh6oydAQfgCDGTn-r-16" style="shape=tableRow;horizontal=0;startSize=0;swimlaneHead=0;swimlaneBody=0;fillColor=none;collapsible=0;dropTarget=0;points=[[0,0.5],[1,0.5]];portConstraint=eastwest;top=0;left=0;right=0;bottom=0;" parent="g9sZR9P15yEsQG1jrWq3-64" vertex="1">
          <mxGeometry y="150" width="310" height="30" as="geometry" />
        </mxCell>
        <mxCell id="2ttjh6oydAQfgCDGTn-r-17" value="FK2" style="shape=partialRectangle;connectable=0;fillColor=none;top=0;left=0;bottom=0;right=0;editable=1;overflow=hidden;whiteSpace=wrap;html=1;" parent="2ttjh6oydAQfgCDGTn-r-16" vertex="1">
          <mxGeometry width="30" height="30" as="geometry">
            <mxRectangle width="30" height="30" as="alternateBounds" />
          </mxGeometry>
        </mxCell>
        <mxCell id="2ttjh6oydAQfgCDGTn-r-18" value="id_asisten int NOT NULL" style="shape=partialRectangle;connectable=0;fillColor=none;top=0;left=0;bottom=0;right=0;align=left;spacingLeft=6;overflow=hidden;whiteSpace=wrap;html=1;" parent="2ttjh6oydAQfgCDGTn-r-16" vertex="1">
          <mxGeometry x="30" width="280" height="30" as="geometry">
            <mxRectangle width="280" height="30" as="alternateBounds" />
          </mxGeometry>
        </mxCell>
        <mxCell id="g9sZR9P15yEsQG1jrWq3-77" value="mst_matakuliahpraktikum" style="shape=table;startSize=30;container=1;collapsible=1;childLayout=tableLayout;fixedRows=1;rowLines=0;fontStyle=1;align=center;resizeLast=1;html=1;fillColor=#008a00;fontColor=#ffffff;strokeColor=#005700;" parent="1" vertex="1">
          <mxGeometry x="1830" y="350" width="330" height="180" as="geometry" />
        </mxCell>
        <mxCell id="g9sZR9P15yEsQG1jrWq3-78" value="" style="shape=tableRow;horizontal=0;startSize=0;swimlaneHead=0;swimlaneBody=0;fillColor=none;collapsible=0;dropTarget=0;points=[[0,0.5],[1,0.5]];portConstraint=eastwest;top=0;left=0;right=0;bottom=1;" parent="g9sZR9P15yEsQG1jrWq3-77" vertex="1">
          <mxGeometry y="30" width="330" height="30" as="geometry" />
        </mxCell>
        <mxCell id="g9sZR9P15yEsQG1jrWq3-79" value="PK" style="shape=partialRectangle;connectable=0;fillColor=none;top=0;left=0;bottom=0;right=0;fontStyle=1;overflow=hidden;whiteSpace=wrap;html=1;" parent="g9sZR9P15yEsQG1jrWq3-78" vertex="1">
          <mxGeometry width="30" height="30" as="geometry">
            <mxRectangle width="30" height="30" as="alternateBounds" />
          </mxGeometry>
        </mxCell>
        <mxCell id="g9sZR9P15yEsQG1jrWq3-80" value="id_matkul int NOT NULL" style="shape=partialRectangle;connectable=0;fillColor=none;top=0;left=0;bottom=0;right=0;align=left;spacingLeft=6;fontStyle=5;overflow=hidden;whiteSpace=wrap;html=1;" parent="g9sZR9P15yEsQG1jrWq3-78" vertex="1">
          <mxGeometry x="30" width="300" height="30" as="geometry">
            <mxRectangle width="300" height="30" as="alternateBounds" />
          </mxGeometry>
        </mxCell>
        <mxCell id="2ttjh6oydAQfgCDGTn-r-36" style="shape=tableRow;horizontal=0;startSize=0;swimlaneHead=0;swimlaneBody=0;fillColor=none;collapsible=0;dropTarget=0;points=[[0,0.5],[1,0.5]];portConstraint=eastwest;top=0;left=0;right=0;bottom=0;" parent="g9sZR9P15yEsQG1jrWq3-77" vertex="1">
          <mxGeometry y="60" width="330" height="30" as="geometry" />
        </mxCell>
        <mxCell id="2ttjh6oydAQfgCDGTn-r-37" style="shape=partialRectangle;connectable=0;fillColor=none;top=0;left=0;bottom=0;right=0;editable=1;overflow=hidden;whiteSpace=wrap;html=1;" parent="2ttjh6oydAQfgCDGTn-r-36" vertex="1">
          <mxGeometry width="30" height="30" as="geometry">
            <mxRectangle width="30" height="30" as="alternateBounds" />
          </mxGeometry>
        </mxCell>
        <mxCell id="2ttjh6oydAQfgCDGTn-r-38" value="kode_matkul char(10) NOT NULL" style="shape=partialRectangle;connectable=0;fillColor=none;top=0;left=0;bottom=0;right=0;align=left;spacingLeft=6;overflow=hidden;whiteSpace=wrap;html=1;" parent="2ttjh6oydAQfgCDGTn-r-36" vertex="1">
          <mxGeometry x="30" width="300" height="30" as="geometry">
            <mxRectangle width="300" height="30" as="alternateBounds" />
          </mxGeometry>
        </mxCell>
        <mxCell id="g9sZR9P15yEsQG1jrWq3-81" value="" style="shape=tableRow;horizontal=0;startSize=0;swimlaneHead=0;swimlaneBody=0;fillColor=none;collapsible=0;dropTarget=0;points=[[0,0.5],[1,0.5]];portConstraint=eastwest;top=0;left=0;right=0;bottom=0;" parent="g9sZR9P15yEsQG1jrWq3-77" vertex="1">
          <mxGeometry y="90" width="330" height="30" as="geometry" />
        </mxCell>
        <mxCell id="g9sZR9P15yEsQG1jrWq3-82" value="" style="shape=partialRectangle;connectable=0;fillColor=none;top=0;left=0;bottom=0;right=0;editable=1;overflow=hidden;whiteSpace=wrap;html=1;" parent="g9sZR9P15yEsQG1jrWq3-81" vertex="1">
          <mxGeometry width="30" height="30" as="geometry">
            <mxRectangle width="30" height="30" as="alternateBounds" />
          </mxGeometry>
        </mxCell>
        <mxCell id="g9sZR9P15yEsQG1jrWq3-83" value="nama_matkul varchar(30) NOT NULL" style="shape=partialRectangle;connectable=0;fillColor=none;top=0;left=0;bottom=0;right=0;align=left;spacingLeft=6;overflow=hidden;whiteSpace=wrap;html=1;" parent="g9sZR9P15yEsQG1jrWq3-81" vertex="1">
          <mxGeometry x="30" width="300" height="30" as="geometry">
            <mxRectangle width="300" height="30" as="alternateBounds" />
          </mxGeometry>
        </mxCell>
        <mxCell id="2ttjh6oydAQfgCDGTn-r-1" style="shape=tableRow;horizontal=0;startSize=0;swimlaneHead=0;swimlaneBody=0;fillColor=none;collapsible=0;dropTarget=0;points=[[0,0.5],[1,0.5]];portConstraint=eastwest;top=0;left=0;right=0;bottom=0;" parent="g9sZR9P15yEsQG1jrWq3-77" vertex="1">
          <mxGeometry y="120" width="330" height="30" as="geometry" />
        </mxCell>
        <mxCell id="2ttjh6oydAQfgCDGTn-r-2" style="shape=partialRectangle;connectable=0;fillColor=none;top=0;left=0;bottom=0;right=0;editable=1;overflow=hidden;whiteSpace=wrap;html=1;" parent="2ttjh6oydAQfgCDGTn-r-1" vertex="1">
          <mxGeometry width="30" height="30" as="geometry">
            <mxRectangle width="30" height="30" as="alternateBounds" />
          </mxGeometry>
        </mxCell>
        <mxCell id="2ttjh6oydAQfgCDGTn-r-3" value="prodi enum(&#39;Teknik Informatika&#39;, &#39;Sistem Informasi&#39;)" style="shape=partialRectangle;connectable=0;fillColor=none;top=0;left=0;bottom=0;right=0;align=left;spacingLeft=6;overflow=hidden;whiteSpace=wrap;html=1;" parent="2ttjh6oydAQfgCDGTn-r-1" vertex="1">
          <mxGeometry x="30" width="300" height="30" as="geometry">
            <mxRectangle width="300" height="30" as="alternateBounds" />
          </mxGeometry>
        </mxCell>
        <mxCell id="2ttjh6oydAQfgCDGTn-r-4" style="shape=tableRow;horizontal=0;startSize=0;swimlaneHead=0;swimlaneBody=0;fillColor=none;collapsible=0;dropTarget=0;points=[[0,0.5],[1,0.5]];portConstraint=eastwest;top=0;left=0;right=0;bottom=0;" parent="g9sZR9P15yEsQG1jrWq3-77" vertex="1">
          <mxGeometry y="150" width="330" height="30" as="geometry" />
        </mxCell>
        <mxCell id="2ttjh6oydAQfgCDGTn-r-5" style="shape=partialRectangle;connectable=0;fillColor=none;top=0;left=0;bottom=0;right=0;editable=1;overflow=hidden;whiteSpace=wrap;html=1;" parent="2ttjh6oydAQfgCDGTn-r-4" vertex="1">
          <mxGeometry width="30" height="30" as="geometry">
            <mxRectangle width="30" height="30" as="alternateBounds" />
          </mxGeometry>
        </mxCell>
        <mxCell id="2ttjh6oydAQfgCDGTn-r-6" value="semester enum(&#39;ganjil&#39;, &#39;genap&#39;)" style="shape=partialRectangle;connectable=0;fillColor=none;top=0;left=0;bottom=0;right=0;align=left;spacingLeft=6;overflow=hidden;whiteSpace=wrap;html=1;" parent="2ttjh6oydAQfgCDGTn-r-4" vertex="1">
          <mxGeometry x="30" width="300" height="30" as="geometry">
            <mxRectangle width="300" height="30" as="alternateBounds" />
          </mxGeometry>
        </mxCell>
        <mxCell id="g9sZR9P15yEsQG1jrWq3-103" value="trx_tugas" style="shape=table;startSize=30;container=1;collapsible=1;childLayout=tableLayout;fixedRows=1;rowLines=0;fontStyle=1;align=center;resizeLast=1;html=1;fillColor=#0050ef;fontColor=#ffffff;strokeColor=#001DBC;" parent="1" vertex="1">
          <mxGeometry x="1411" y="390" width="320" height="300" as="geometry" />
        </mxCell>
        <mxCell id="g9sZR9P15yEsQG1jrWq3-104" value="" style="shape=tableRow;horizontal=0;startSize=0;swimlaneHead=0;swimlaneBody=0;fillColor=none;collapsible=0;dropTarget=0;points=[[0,0.5],[1,0.5]];portConstraint=eastwest;top=0;left=0;right=0;bottom=1;" parent="g9sZR9P15yEsQG1jrWq3-103" vertex="1">
          <mxGeometry y="30" width="320" height="30" as="geometry" />
        </mxCell>
        <mxCell id="g9sZR9P15yEsQG1jrWq3-105" value="PK" style="shape=partialRectangle;connectable=0;fillColor=none;top=0;left=0;bottom=0;right=0;fontStyle=1;overflow=hidden;whiteSpace=wrap;html=1;" parent="g9sZR9P15yEsQG1jrWq3-104" vertex="1">
          <mxGeometry width="30" height="30" as="geometry">
            <mxRectangle width="30" height="30" as="alternateBounds" />
          </mxGeometry>
        </mxCell>
        <mxCell id="g9sZR9P15yEsQG1jrWq3-106" value="id_tugas int NOT NULL" style="shape=partialRectangle;connectable=0;fillColor=none;top=0;left=0;bottom=0;right=0;align=left;spacingLeft=6;fontStyle=5;overflow=hidden;whiteSpace=wrap;html=1;" parent="g9sZR9P15yEsQG1jrWq3-104" vertex="1">
          <mxGeometry x="30" width="290" height="30" as="geometry">
            <mxRectangle width="290" height="30" as="alternateBounds" />
          </mxGeometry>
        </mxCell>
        <mxCell id="g9sZR9P15yEsQG1jrWq3-107" value="" style="shape=tableRow;horizontal=0;startSize=0;swimlaneHead=0;swimlaneBody=0;fillColor=none;collapsible=0;dropTarget=0;points=[[0,0.5],[1,0.5]];portConstraint=eastwest;top=0;left=0;right=0;bottom=0;" parent="g9sZR9P15yEsQG1jrWq3-103" vertex="1">
          <mxGeometry y="60" width="320" height="30" as="geometry" />
        </mxCell>
        <mxCell id="g9sZR9P15yEsQG1jrWq3-108" value="" style="shape=partialRectangle;connectable=0;fillColor=none;top=0;left=0;bottom=0;right=0;editable=1;overflow=hidden;whiteSpace=wrap;html=1;" parent="g9sZR9P15yEsQG1jrWq3-107" vertex="1">
          <mxGeometry width="30" height="30" as="geometry">
            <mxRectangle width="30" height="30" as="alternateBounds" />
          </mxGeometry>
        </mxCell>
        <mxCell id="g9sZR9P15yEsQG1jrWq3-109" value="nama_tugas varchar(30) NOT NULL" style="shape=partialRectangle;connectable=0;fillColor=none;top=0;left=0;bottom=0;right=0;align=left;spacingLeft=6;overflow=hidden;whiteSpace=wrap;html=1;" parent="g9sZR9P15yEsQG1jrWq3-107" vertex="1">
          <mxGeometry x="30" width="290" height="30" as="geometry">
            <mxRectangle width="290" height="30" as="alternateBounds" />
          </mxGeometry>
        </mxCell>
        <mxCell id="g9sZR9P15yEsQG1jrWq3-110" value="" style="shape=tableRow;horizontal=0;startSize=0;swimlaneHead=0;swimlaneBody=0;fillColor=none;collapsible=0;dropTarget=0;points=[[0,0.5],[1,0.5]];portConstraint=eastwest;top=0;left=0;right=0;bottom=0;" parent="g9sZR9P15yEsQG1jrWq3-103" vertex="1">
          <mxGeometry y="90" width="320" height="30" as="geometry" />
        </mxCell>
        <mxCell id="g9sZR9P15yEsQG1jrWq3-111" value="" style="shape=partialRectangle;connectable=0;fillColor=none;top=0;left=0;bottom=0;right=0;editable=1;overflow=hidden;whiteSpace=wrap;html=1;" parent="g9sZR9P15yEsQG1jrWq3-110" vertex="1">
          <mxGeometry width="30" height="30" as="geometry">
            <mxRectangle width="30" height="30" as="alternateBounds" />
          </mxGeometry>
        </mxCell>
        <mxCell id="g9sZR9P15yEsQG1jrWq3-112" value="deskripsi_tugas TEXT" style="shape=partialRectangle;connectable=0;fillColor=none;top=0;left=0;bottom=0;right=0;align=left;spacingLeft=6;overflow=hidden;whiteSpace=wrap;html=1;" parent="g9sZR9P15yEsQG1jrWq3-110" vertex="1">
          <mxGeometry x="30" width="290" height="30" as="geometry">
            <mxRectangle width="290" height="30" as="alternateBounds" />
          </mxGeometry>
        </mxCell>
        <mxCell id="g9sZR9P15yEsQG1jrWq3-113" value="" style="shape=tableRow;horizontal=0;startSize=0;swimlaneHead=0;swimlaneBody=0;fillColor=none;collapsible=0;dropTarget=0;points=[[0,0.5],[1,0.5]];portConstraint=eastwest;top=0;left=0;right=0;bottom=0;" parent="g9sZR9P15yEsQG1jrWq3-103" vertex="1">
          <mxGeometry y="120" width="320" height="30" as="geometry" />
        </mxCell>
        <mxCell id="g9sZR9P15yEsQG1jrWq3-114" value="" style="shape=partialRectangle;connectable=0;fillColor=none;top=0;left=0;bottom=0;right=0;editable=1;overflow=hidden;whiteSpace=wrap;html=1;" parent="g9sZR9P15yEsQG1jrWq3-113" vertex="1">
          <mxGeometry width="30" height="30" as="geometry">
            <mxRectangle width="30" height="30" as="alternateBounds" />
          </mxGeometry>
        </mxCell>
        <mxCell id="g9sZR9P15yEsQG1jrWq3-115" value="status varchar(10) NOT NULL" style="shape=partialRectangle;connectable=0;fillColor=none;top=0;left=0;bottom=0;right=0;align=left;spacingLeft=6;overflow=hidden;whiteSpace=wrap;html=1;" parent="g9sZR9P15yEsQG1jrWq3-113" vertex="1">
          <mxGeometry x="30" width="290" height="30" as="geometry">
            <mxRectangle width="290" height="30" as="alternateBounds" />
          </mxGeometry>
        </mxCell>
        <mxCell id="laH__HtOdWzhjJgcULU--5" style="shape=tableRow;horizontal=0;startSize=0;swimlaneHead=0;swimlaneBody=0;fillColor=none;collapsible=0;dropTarget=0;points=[[0,0.5],[1,0.5]];portConstraint=eastwest;top=0;left=0;right=0;bottom=0;" parent="g9sZR9P15yEsQG1jrWq3-103" vertex="1">
          <mxGeometry y="150" width="320" height="30" as="geometry" />
        </mxCell>
        <mxCell id="laH__HtOdWzhjJgcULU--6" style="shape=partialRectangle;connectable=0;fillColor=none;top=0;left=0;bottom=0;right=0;editable=1;overflow=hidden;whiteSpace=wrap;html=1;" parent="laH__HtOdWzhjJgcULU--5" vertex="1">
          <mxGeometry width="30" height="30" as="geometry">
            <mxRectangle width="30" height="30" as="alternateBounds" />
          </mxGeometry>
        </mxCell>
        <mxCell id="laH__HtOdWzhjJgcULU--7" value="tgl_tugas DATE" style="shape=partialRectangle;connectable=0;fillColor=none;top=0;left=0;bottom=0;right=0;align=left;spacingLeft=6;overflow=hidden;whiteSpace=wrap;html=1;" parent="laH__HtOdWzhjJgcULU--5" vertex="1">
          <mxGeometry x="30" width="290" height="30" as="geometry">
            <mxRectangle width="290" height="30" as="alternateBounds" />
          </mxGeometry>
        </mxCell>
        <mxCell id="g9sZR9P15yEsQG1jrWq3-121" style="shape=tableRow;horizontal=0;startSize=0;swimlaneHead=0;swimlaneBody=0;fillColor=none;collapsible=0;dropTarget=0;points=[[0,0.5],[1,0.5]];portConstraint=eastwest;top=0;left=0;right=0;bottom=0;" parent="g9sZR9P15yEsQG1jrWq3-103" vertex="1">
          <mxGeometry y="180" width="320" height="30" as="geometry" />
        </mxCell>
        <mxCell id="g9sZR9P15yEsQG1jrWq3-122" style="shape=partialRectangle;connectable=0;fillColor=none;top=0;left=0;bottom=0;right=0;editable=1;overflow=hidden;whiteSpace=wrap;html=1;" parent="g9sZR9P15yEsQG1jrWq3-121" vertex="1">
          <mxGeometry width="30" height="30" as="geometry">
            <mxRectangle width="30" height="30" as="alternateBounds" />
          </mxGeometry>
        </mxCell>
        <mxCell id="g9sZR9P15yEsQG1jrWq3-123" value="tgl_pengecekan TIMESTAMP" style="shape=partialRectangle;connectable=0;fillColor=none;top=0;left=0;bottom=0;right=0;align=left;spacingLeft=6;overflow=hidden;whiteSpace=wrap;html=1;" parent="g9sZR9P15yEsQG1jrWq3-121" vertex="1">
          <mxGeometry x="30" width="290" height="30" as="geometry">
            <mxRectangle width="290" height="30" as="alternateBounds" />
          </mxGeometry>
        </mxCell>
        <mxCell id="g9sZR9P15yEsQG1jrWq3-127" style="shape=tableRow;horizontal=0;startSize=0;swimlaneHead=0;swimlaneBody=0;fillColor=none;collapsible=0;dropTarget=0;points=[[0,0.5],[1,0.5]];portConstraint=eastwest;top=0;left=0;right=0;bottom=0;" parent="g9sZR9P15yEsQG1jrWq3-103" vertex="1">
          <mxGeometry y="210" width="320" height="30" as="geometry" />
        </mxCell>
        <mxCell id="g9sZR9P15yEsQG1jrWq3-128" value="FK1" style="shape=partialRectangle;connectable=0;fillColor=none;top=0;left=0;bottom=0;right=0;editable=1;overflow=hidden;whiteSpace=wrap;html=1;" parent="g9sZR9P15yEsQG1jrWq3-127" vertex="1">
          <mxGeometry width="30" height="30" as="geometry">
            <mxRectangle width="30" height="30" as="alternateBounds" />
          </mxGeometry>
        </mxCell>
        <mxCell id="g9sZR9P15yEsQG1jrWq3-129" value="id_asisten NOT NULL" style="shape=partialRectangle;connectable=0;fillColor=none;top=0;left=0;bottom=0;right=0;align=left;spacingLeft=6;overflow=hidden;whiteSpace=wrap;html=1;" parent="g9sZR9P15yEsQG1jrWq3-127" vertex="1">
          <mxGeometry x="30" width="290" height="30" as="geometry">
            <mxRectangle width="290" height="30" as="alternateBounds" />
          </mxGeometry>
        </mxCell>
        <mxCell id="g9sZR9P15yEsQG1jrWq3-130" style="shape=tableRow;horizontal=0;startSize=0;swimlaneHead=0;swimlaneBody=0;fillColor=none;collapsible=0;dropTarget=0;points=[[0,0.5],[1,0.5]];portConstraint=eastwest;top=0;left=0;right=0;bottom=0;" parent="g9sZR9P15yEsQG1jrWq3-103" vertex="1">
          <mxGeometry y="240" width="320" height="30" as="geometry" />
        </mxCell>
        <mxCell id="g9sZR9P15yEsQG1jrWq3-131" value="FK2" style="shape=partialRectangle;connectable=0;fillColor=none;top=0;left=0;bottom=0;right=0;editable=1;overflow=hidden;whiteSpace=wrap;html=1;" parent="g9sZR9P15yEsQG1jrWq3-130" vertex="1">
          <mxGeometry width="30" height="30" as="geometry">
            <mxRectangle width="30" height="30" as="alternateBounds" />
          </mxGeometry>
        </mxCell>
        <mxCell id="g9sZR9P15yEsQG1jrWq3-132" value="id_praktikan int NOT NULL" style="shape=partialRectangle;connectable=0;fillColor=none;top=0;left=0;bottom=0;right=0;align=left;spacingLeft=6;overflow=hidden;whiteSpace=wrap;html=1;" parent="g9sZR9P15yEsQG1jrWq3-130" vertex="1">
          <mxGeometry x="30" width="290" height="30" as="geometry">
            <mxRectangle width="290" height="30" as="alternateBounds" />
          </mxGeometry>
        </mxCell>
        <mxCell id="g9sZR9P15yEsQG1jrWq3-118" style="shape=tableRow;horizontal=0;startSize=0;swimlaneHead=0;swimlaneBody=0;fillColor=none;collapsible=0;dropTarget=0;points=[[0,0.5],[1,0.5]];portConstraint=eastwest;top=0;left=0;right=0;bottom=0;" parent="g9sZR9P15yEsQG1jrWq3-103" vertex="1">
          <mxGeometry y="270" width="320" height="30" as="geometry" />
        </mxCell>
        <mxCell id="g9sZR9P15yEsQG1jrWq3-119" value="FK3" style="shape=partialRectangle;connectable=0;fillColor=none;top=0;left=0;bottom=0;right=0;editable=1;overflow=hidden;whiteSpace=wrap;html=1;" parent="g9sZR9P15yEsQG1jrWq3-118" vertex="1">
          <mxGeometry width="30" height="30" as="geometry">
            <mxRectangle width="30" height="30" as="alternateBounds" />
          </mxGeometry>
        </mxCell>
        <mxCell id="g9sZR9P15yEsQG1jrWq3-120" value="id_dosen int NOT NULL" style="shape=partialRectangle;connectable=0;fillColor=none;top=0;left=0;bottom=0;right=0;align=left;spacingLeft=6;overflow=hidden;whiteSpace=wrap;html=1;" parent="g9sZR9P15yEsQG1jrWq3-118" vertex="1">
          <mxGeometry x="30" width="290" height="30" as="geometry">
            <mxRectangle width="290" height="30" as="alternateBounds" />
          </mxGeometry>
        </mxCell>
        <mxCell id="g9sZR9P15yEsQG1jrWq3-136" value="" style="edgeStyle=entityRelationEdgeStyle;endArrow=ERzeroToMany;startArrow=ERone;endFill=1;startFill=0;entryX=1;entryY=0.5;entryDx=0;entryDy=0;exitX=1;exitY=0.5;exitDx=0;exitDy=0;" parent="1" source="g9sZR9P15yEsQG1jrWq3-13" target="g9sZR9P15yEsQG1jrWq3-61" edge="1">
          <mxGeometry width="100" height="100" relative="1" as="geometry">
            <mxPoint x="1251" y="257" as="sourcePoint" />
            <mxPoint x="1250" y="615" as="targetPoint" />
            <Array as="points">
              <mxPoint x="1260" y="480" />
              <mxPoint x="1220" y="410" />
            </Array>
          </mxGeometry>
        </mxCell>
        <mxCell id="g9sZR9P15yEsQG1jrWq3-140" value="" style="edgeStyle=entityRelationEdgeStyle;endArrow=ERzeroToMany;startArrow=ERone;endFill=1;startFill=0;fontStyle=1;exitX=1;exitY=0.5;exitDx=0;exitDy=0;entryX=1;entryY=0.5;entryDx=0;entryDy=0;" parent="1" source="g9sZR9P15yEsQG1jrWq3-13" target="g9sZR9P15yEsQG1jrWq3-32" edge="1">
          <mxGeometry width="100" height="100" relative="1" as="geometry">
            <mxPoint x="1340" y="200" as="sourcePoint" />
            <mxPoint x="1320" y="510" as="targetPoint" />
          </mxGeometry>
        </mxCell>
        <mxCell id="g9sZR9P15yEsQG1jrWq3-141" value="" style="edgeStyle=entityRelationEdgeStyle;endArrow=ERzeroToMany;startArrow=ERone;endFill=1;startFill=0;entryX=1;entryY=0.5;entryDx=0;entryDy=0;fontStyle=1;exitX=0;exitY=0.5;exitDx=0;exitDy=0;" parent="1" source="g9sZR9P15yEsQG1jrWq3-65" target="g9sZR9P15yEsQG1jrWq3-58" edge="1">
          <mxGeometry width="100" height="100" relative="1" as="geometry">
            <mxPoint x="1340" y="665" as="sourcePoint" />
            <mxPoint x="1340" y="435" as="targetPoint" />
          </mxGeometry>
        </mxCell>
        <mxCell id="g9sZR9P15yEsQG1jrWq3-146" value="" style="edgeStyle=entityRelationEdgeStyle;endArrow=ERzeroToMany;startArrow=ERone;endFill=1;startFill=0;entryX=0;entryY=0.5;entryDx=0;entryDy=0;fontStyle=1;exitX=1;exitY=0.5;exitDx=0;exitDy=0;" parent="1" source="g9sZR9P15yEsQG1jrWq3-39" target="g9sZR9P15yEsQG1jrWq3-127" edge="1">
          <mxGeometry width="100" height="100" relative="1" as="geometry">
            <mxPoint x="1250" y="520" as="sourcePoint" />
            <mxPoint x="1410" y="760" as="targetPoint" />
          </mxGeometry>
        </mxCell>
        <mxCell id="g9sZR9P15yEsQG1jrWq3-147" value="" style="edgeStyle=entityRelationEdgeStyle;endArrow=ERzeroToMany;startArrow=ERone;endFill=1;startFill=0;entryX=0;entryY=0.5;entryDx=0;entryDy=0;fontStyle=1;exitX=1;exitY=0.5;exitDx=0;exitDy=0;" parent="1" source="g9sZR9P15yEsQG1jrWq3-52" target="g9sZR9P15yEsQG1jrWq3-130" edge="1">
          <mxGeometry width="100" height="100" relative="1" as="geometry">
            <mxPoint x="1290" y="615" as="sourcePoint" />
            <mxPoint x="1450" y="855" as="targetPoint" />
          </mxGeometry>
        </mxCell>
        <mxCell id="g9sZR9P15yEsQG1jrWq3-148" value="" style="edgeStyle=entityRelationEdgeStyle;endArrow=ERzeroToMany;startArrow=ERone;endFill=1;startFill=0;entryX=1;entryY=0.5;entryDx=0;entryDy=0;fontStyle=1;exitX=0;exitY=0.5;exitDx=0;exitDy=0;" parent="1" source="g9sZR9P15yEsQG1jrWq3-91" target="g9sZR9P15yEsQG1jrWq3-118" edge="1">
          <mxGeometry width="100" height="100" relative="1" as="geometry">
            <mxPoint x="1760" y="480" as="sourcePoint" />
            <mxPoint x="1920" y="720" as="targetPoint" />
          </mxGeometry>
        </mxCell>
        <mxCell id="2ttjh6oydAQfgCDGTn-r-22" value="" style="edgeStyle=entityRelationEdgeStyle;endArrow=ERzeroToMany;startArrow=ERone;endFill=1;startFill=0;fontStyle=1;exitX=1;exitY=0.5;exitDx=0;exitDy=0;" parent="1" source="g9sZR9P15yEsQG1jrWq3-52" target="2ttjh6oydAQfgCDGTn-r-16" edge="1">
          <mxGeometry width="100" height="100" relative="1" as="geometry">
            <mxPoint x="1260" y="715" as="sourcePoint" />
            <mxPoint x="1421" y="655" as="targetPoint" />
          </mxGeometry>
        </mxCell>
        <mxCell id="2ttjh6oydAQfgCDGTn-r-24" value="" style="edgeStyle=entityRelationEdgeStyle;endArrow=ERzeroToMany;startArrow=ERone;endFill=1;startFill=0;fontStyle=1;exitX=0;exitY=0.5;exitDx=0;exitDy=0;entryX=1;entryY=0.5;entryDx=0;entryDy=0;" parent="1" source="g9sZR9P15yEsQG1jrWq3-91" target="2ttjh6oydAQfgCDGTn-r-19" edge="1">
          <mxGeometry width="100" height="100" relative="1" as="geometry">
            <mxPoint x="1840" y="405" as="sourcePoint" />
            <mxPoint x="1720" y="260" as="targetPoint" />
          </mxGeometry>
        </mxCell>
        <mxCell id="2ttjh6oydAQfgCDGTn-r-29" value="" style="edgeStyle=entityRelationEdgeStyle;endArrow=ERzeroToMany;startArrow=ERone;endFill=1;startFill=0;fontStyle=1;exitX=1;exitY=0.5;exitDx=0;exitDy=0;entryX=1;entryY=0.5;entryDx=0;entryDy=0;" parent="1" source="g9sZR9P15yEsQG1jrWq3-78" target="2ttjh6oydAQfgCDGTn-r-25" edge="1">
          <mxGeometry width="100" height="100" relative="1" as="geometry">
            <mxPoint x="1880" y="155" as="sourcePoint" />
            <mxPoint x="1720" y="290" as="targetPoint" />
          </mxGeometry>
        </mxCell>
        <mxCell id="g9sZR9P15yEsQG1jrWq3-90" value="mst_dosenPengampuh" style="shape=table;startSize=30;container=1;collapsible=1;childLayout=tableLayout;fixedRows=1;rowLines=0;fontStyle=1;align=center;resizeLast=1;html=1;fillColor=#008a00;fontColor=#ffffff;strokeColor=#005700;" parent="1" vertex="1">
          <mxGeometry x="1870" y="80" width="290" height="180" as="geometry" />
        </mxCell>
        <mxCell id="g9sZR9P15yEsQG1jrWq3-91" value="" style="shape=tableRow;horizontal=0;startSize=0;swimlaneHead=0;swimlaneBody=0;fillColor=none;collapsible=0;dropTarget=0;points=[[0,0.5],[1,0.5]];portConstraint=eastwest;top=0;left=0;right=0;bottom=1;" parent="g9sZR9P15yEsQG1jrWq3-90" vertex="1">
          <mxGeometry y="30" width="290" height="30" as="geometry" />
        </mxCell>
        <mxCell id="g9sZR9P15yEsQG1jrWq3-92" value="PK" style="shape=partialRectangle;connectable=0;fillColor=none;top=0;left=0;bottom=0;right=0;fontStyle=1;overflow=hidden;whiteSpace=wrap;html=1;" parent="g9sZR9P15yEsQG1jrWq3-91" vertex="1">
          <mxGeometry width="30" height="30" as="geometry">
            <mxRectangle width="30" height="30" as="alternateBounds" />
          </mxGeometry>
        </mxCell>
        <mxCell id="g9sZR9P15yEsQG1jrWq3-93" value="id_dosen int NOT NULL" style="shape=partialRectangle;connectable=0;fillColor=none;top=0;left=0;bottom=0;right=0;align=left;spacingLeft=6;fontStyle=5;overflow=hidden;whiteSpace=wrap;html=1;" parent="g9sZR9P15yEsQG1jrWq3-91" vertex="1">
          <mxGeometry x="30" width="260" height="30" as="geometry">
            <mxRectangle width="260" height="30" as="alternateBounds" />
          </mxGeometry>
        </mxCell>
        <mxCell id="De_63PwcYuU3ZTPEiGWg-19" style="shape=tableRow;horizontal=0;startSize=0;swimlaneHead=0;swimlaneBody=0;fillColor=none;collapsible=0;dropTarget=0;points=[[0,0.5],[1,0.5]];portConstraint=eastwest;top=0;left=0;right=0;bottom=0;" parent="g9sZR9P15yEsQG1jrWq3-90" vertex="1">
          <mxGeometry y="60" width="290" height="30" as="geometry" />
        </mxCell>
        <mxCell id="De_63PwcYuU3ZTPEiGWg-20" value="UNI" style="shape=partialRectangle;connectable=0;fillColor=none;top=0;left=0;bottom=0;right=0;editable=1;overflow=hidden;whiteSpace=wrap;html=1;" parent="De_63PwcYuU3ZTPEiGWg-19" vertex="1">
          <mxGeometry width="30" height="30" as="geometry">
            <mxRectangle width="30" height="30" as="alternateBounds" />
          </mxGeometry>
        </mxCell>
        <mxCell id="De_63PwcYuU3ZTPEiGWg-21" value="nip_dosen varchar(20) NOT NULL" style="shape=partialRectangle;connectable=0;fillColor=none;top=0;left=0;bottom=0;right=0;align=left;spacingLeft=6;overflow=hidden;whiteSpace=wrap;html=1;" parent="De_63PwcYuU3ZTPEiGWg-19" vertex="1">
          <mxGeometry x="30" width="260" height="30" as="geometry">
            <mxRectangle width="260" height="30" as="alternateBounds" />
          </mxGeometry>
        </mxCell>
        <mxCell id="g9sZR9P15yEsQG1jrWq3-94" value="" style="shape=tableRow;horizontal=0;startSize=0;swimlaneHead=0;swimlaneBody=0;fillColor=none;collapsible=0;dropTarget=0;points=[[0,0.5],[1,0.5]];portConstraint=eastwest;top=0;left=0;right=0;bottom=0;" parent="g9sZR9P15yEsQG1jrWq3-90" vertex="1">
          <mxGeometry y="90" width="290" height="30" as="geometry" />
        </mxCell>
        <mxCell id="g9sZR9P15yEsQG1jrWq3-95" value="" style="shape=partialRectangle;connectable=0;fillColor=none;top=0;left=0;bottom=0;right=0;editable=1;overflow=hidden;whiteSpace=wrap;html=1;" parent="g9sZR9P15yEsQG1jrWq3-94" vertex="1">
          <mxGeometry width="30" height="30" as="geometry">
            <mxRectangle width="30" height="30" as="alternateBounds" />
          </mxGeometry>
        </mxCell>
        <mxCell id="g9sZR9P15yEsQG1jrWq3-96" value="namadosen varchar(50) NOT NULL" style="shape=partialRectangle;connectable=0;fillColor=none;top=0;left=0;bottom=0;right=0;align=left;spacingLeft=6;overflow=hidden;whiteSpace=wrap;html=1;" parent="g9sZR9P15yEsQG1jrWq3-94" vertex="1">
          <mxGeometry x="30" width="260" height="30" as="geometry">
            <mxRectangle width="260" height="30" as="alternateBounds" />
          </mxGeometry>
        </mxCell>
        <mxCell id="2ttjh6oydAQfgCDGTn-r-25" style="shape=tableRow;horizontal=0;startSize=0;swimlaneHead=0;swimlaneBody=0;fillColor=none;collapsible=0;dropTarget=0;points=[[0,0.5],[1,0.5]];portConstraint=eastwest;top=0;left=0;right=0;bottom=0;" parent="g9sZR9P15yEsQG1jrWq3-90" vertex="1">
          <mxGeometry y="120" width="290" height="30" as="geometry" />
        </mxCell>
        <mxCell id="2ttjh6oydAQfgCDGTn-r-26" value="FK" style="shape=partialRectangle;connectable=0;fillColor=none;top=0;left=0;bottom=0;right=0;editable=1;overflow=hidden;whiteSpace=wrap;html=1;" parent="2ttjh6oydAQfgCDGTn-r-25" vertex="1">
          <mxGeometry width="30" height="30" as="geometry">
            <mxRectangle width="30" height="30" as="alternateBounds" />
          </mxGeometry>
        </mxCell>
        <mxCell id="2ttjh6oydAQfgCDGTn-r-27" value="id_matkul int NOT NULL" style="shape=partialRectangle;connectable=0;fillColor=none;top=0;left=0;bottom=0;right=0;align=left;spacingLeft=6;overflow=hidden;whiteSpace=wrap;html=1;" parent="2ttjh6oydAQfgCDGTn-r-25" vertex="1">
          <mxGeometry x="30" width="260" height="30" as="geometry">
            <mxRectangle width="260" height="30" as="alternateBounds" />
          </mxGeometry>
        </mxCell>
        <mxCell id="2ttjh6oydAQfgCDGTn-r-10" style="shape=tableRow;horizontal=0;startSize=0;swimlaneHead=0;swimlaneBody=0;fillColor=none;collapsible=0;dropTarget=0;points=[[0,0.5],[1,0.5]];portConstraint=eastwest;top=0;left=0;right=0;bottom=0;" parent="g9sZR9P15yEsQG1jrWq3-90" vertex="1">
          <mxGeometry y="150" width="290" height="30" as="geometry" />
        </mxCell>
        <mxCell id="2ttjh6oydAQfgCDGTn-r-11" style="shape=partialRectangle;connectable=0;fillColor=none;top=0;left=0;bottom=0;right=0;editable=1;overflow=hidden;whiteSpace=wrap;html=1;" parent="2ttjh6oydAQfgCDGTn-r-10" vertex="1">
          <mxGeometry width="30" height="30" as="geometry">
            <mxRectangle width="30" height="30" as="alternateBounds" />
          </mxGeometry>
        </mxCell>
        <mxCell id="2ttjh6oydAQfgCDGTn-r-12" value="kelas char(5) NOT NULL" style="shape=partialRectangle;connectable=0;fillColor=none;top=0;left=0;bottom=0;right=0;align=left;spacingLeft=6;overflow=hidden;whiteSpace=wrap;html=1;" parent="2ttjh6oydAQfgCDGTn-r-10" vertex="1">
          <mxGeometry x="30" width="260" height="30" as="geometry">
            <mxRectangle width="260" height="30" as="alternateBounds" />
          </mxGeometry>
        </mxCell>
      </root>
    </mxGraphModel>
  </diagram>
  <diagram id="8xCJQD1KMjqiI4wy_31N" name="USE CASE">
    <mxGraphModel dx="2063" dy="2310" grid="1" gridSize="10" guides="1" tooltips="1" connect="1" arrows="1" fold="1" page="1" pageScale="1" pageWidth="850" pageHeight="1100" math="0" shadow="0">
      <root>
        <mxCell id="0" />
        <mxCell id="1" parent="0" />
        <mxCell id="LmFTSXichcNkXZxcfNyG-3" style="edgeStyle=orthogonalEdgeStyle;rounded=0;orthogonalLoop=1;jettySize=auto;html=1;exitX=1;exitY=0.3333333333333333;exitDx=0;exitDy=0;exitPerimeter=0;entryX=0;entryY=0.5;entryDx=0;entryDy=0;fillColor=#d80073;strokeColor=#A50040;" parent="1" source="aVK8O0B2rPMwdk-hmoGI-1" target="YMDOyxrxhtfnAnfaXzsU-1" edge="1">
          <mxGeometry relative="1" as="geometry" />
        </mxCell>
        <mxCell id="LmFTSXichcNkXZxcfNyG-5" style="edgeStyle=orthogonalEdgeStyle;rounded=0;orthogonalLoop=1;jettySize=auto;html=1;exitX=0.5;exitY=0;exitDx=0;exitDy=0;exitPerimeter=0;entryX=0;entryY=0.5;entryDx=0;entryDy=0;fillColor=#d80073;strokeColor=#A50040;" parent="1" source="aVK8O0B2rPMwdk-hmoGI-1" target="u8ytBh5eA0GfywoDB3Va-1" edge="1">
          <mxGeometry relative="1" as="geometry">
            <mxPoint x="640" y="-640" as="targetPoint" />
          </mxGeometry>
        </mxCell>
        <mxCell id="LmFTSXichcNkXZxcfNyG-7" style="edgeStyle=orthogonalEdgeStyle;rounded=0;orthogonalLoop=1;jettySize=auto;html=1;exitX=1;exitY=1;exitDx=0;exitDy=0;exitPerimeter=0;entryX=0;entryY=0.5;entryDx=0;entryDy=0;fillColor=#d80073;strokeColor=#A50040;" parent="1" source="aVK8O0B2rPMwdk-hmoGI-1" target="qP-yLWMr7BC6t9WoD3ac-4" edge="1">
          <mxGeometry relative="1" as="geometry" />
        </mxCell>
        <mxCell id="LmFTSXichcNkXZxcfNyG-9" style="edgeStyle=orthogonalEdgeStyle;rounded=0;orthogonalLoop=1;jettySize=auto;html=1;exitX=1;exitY=1;exitDx=0;exitDy=0;exitPerimeter=0;entryX=0;entryY=0.5;entryDx=0;entryDy=0;fillColor=#d80073;strokeColor=#A50040;" parent="1" source="aVK8O0B2rPMwdk-hmoGI-1" target="LmFTSXichcNkXZxcfNyG-1" edge="1">
          <mxGeometry relative="1" as="geometry" />
        </mxCell>
        <mxCell id="LmFTSXichcNkXZxcfNyG-10" style="edgeStyle=orthogonalEdgeStyle;rounded=0;orthogonalLoop=1;jettySize=auto;html=1;exitX=1;exitY=1;exitDx=0;exitDy=0;exitPerimeter=0;entryX=0;entryY=0.5;entryDx=0;entryDy=0;fillColor=#d80073;strokeColor=#A50040;" parent="1" source="aVK8O0B2rPMwdk-hmoGI-1" target="qP-yLWMr7BC6t9WoD3ac-5" edge="1">
          <mxGeometry relative="1" as="geometry" />
        </mxCell>
        <mxCell id="aVK8O0B2rPMwdk-hmoGI-1" value="&lt;span style=&quot;background-color: rgb(5, 5, 5);&quot;&gt;&lt;font style=&quot;font-size: 14px;&quot;&gt;Administrator&lt;/font&gt;&lt;/span&gt;" style="shape=umlActor;verticalLabelPosition=bottom;verticalAlign=top;html=1;outlineConnect=0;fillColor=#d80073;fontColor=#ffffff;strokeColor=#A50040;" parent="1" vertex="1">
          <mxGeometry x="260" y="-290" width="30" height="60" as="geometry" />
        </mxCell>
        <mxCell id="LmFTSXichcNkXZxcfNyG-12" style="edgeStyle=orthogonalEdgeStyle;rounded=0;orthogonalLoop=1;jettySize=auto;html=1;exitX=1;exitY=0.3333333333333333;exitDx=0;exitDy=0;exitPerimeter=0;entryX=0;entryY=1;entryDx=0;entryDy=0;fillColor=#fa6800;strokeColor=#C73500;" parent="1" source="aVK8O0B2rPMwdk-hmoGI-2" target="YMDOyxrxhtfnAnfaXzsU-1" edge="1">
          <mxGeometry relative="1" as="geometry">
            <Array as="points">
              <mxPoint x="570" y="90" />
              <mxPoint x="570" y="-282" />
            </Array>
          </mxGeometry>
        </mxCell>
        <mxCell id="LmFTSXichcNkXZxcfNyG-13" style="edgeStyle=orthogonalEdgeStyle;rounded=0;orthogonalLoop=1;jettySize=auto;html=1;exitX=0.5;exitY=0.5;exitDx=0;exitDy=0;exitPerimeter=0;entryX=0;entryY=0;entryDx=0;entryDy=0;fillColor=#f0a30a;strokeColor=#BD7000;" parent="1" source="aVK8O0B2rPMwdk-hmoGI-2" target="qP-yLWMr7BC6t9WoD3ac-3" edge="1">
          <mxGeometry relative="1" as="geometry">
            <Array as="points">
              <mxPoint x="335" y="232" />
            </Array>
          </mxGeometry>
        </mxCell>
        <mxCell id="u8ytBh5eA0GfywoDB3Va-6" style="edgeStyle=orthogonalEdgeStyle;rounded=0;orthogonalLoop=1;jettySize=auto;html=1;exitX=1;exitY=0.3333333333333333;exitDx=0;exitDy=0;exitPerimeter=0;entryX=0;entryY=0.5;entryDx=0;entryDy=0;fillColor=#fa6800;strokeColor=#C73500;" edge="1" parent="1" source="aVK8O0B2rPMwdk-hmoGI-2" target="u8ytBh5eA0GfywoDB3Va-4">
          <mxGeometry relative="1" as="geometry" />
        </mxCell>
        <mxCell id="aVK8O0B2rPMwdk-hmoGI-2" value="&lt;span style=&quot;background-color: rgb(5, 5, 5);&quot;&gt;&lt;font color=&quot;#f0f0f0&quot; style=&quot;font-size: 14px;&quot;&gt;Asisten&lt;/font&gt;&lt;/span&gt;" style="shape=umlActor;verticalLabelPosition=bottom;verticalAlign=top;html=1;outlineConnect=0;fillColor=#fa6800;fontColor=#000000;strokeColor=#C73500;" parent="1" vertex="1">
          <mxGeometry x="320" y="70" width="30" height="60" as="geometry" />
        </mxCell>
        <mxCell id="LmFTSXichcNkXZxcfNyG-4" style="edgeStyle=orthogonalEdgeStyle;rounded=0;orthogonalLoop=1;jettySize=auto;html=1;exitX=0;exitY=0.3333333333333333;exitDx=0;exitDy=0;exitPerimeter=0;entryX=1;entryY=0.5;entryDx=0;entryDy=0;fillColor=#60a917;strokeColor=#2D7600;" parent="1" source="aVK8O0B2rPMwdk-hmoGI-8" edge="1">
          <mxGeometry relative="1" as="geometry">
            <Array as="points">
              <mxPoint x="1380" y="-500" />
            </Array>
            <mxPoint x="960" y="-500" as="targetPoint" />
          </mxGeometry>
        </mxCell>
        <mxCell id="LmFTSXichcNkXZxcfNyG-11" style="edgeStyle=orthogonalEdgeStyle;rounded=0;orthogonalLoop=1;jettySize=auto;html=1;exitX=0;exitY=0.3333333333333333;exitDx=0;exitDy=0;exitPerimeter=0;entryX=1;entryY=0.5;entryDx=0;entryDy=0;fillColor=#60a917;strokeColor=#2D7600;" parent="1" source="aVK8O0B2rPMwdk-hmoGI-8" target="YMDOyxrxhtfnAnfaXzsU-1" edge="1">
          <mxGeometry relative="1" as="geometry" />
        </mxCell>
        <mxCell id="LmFTSXichcNkXZxcfNyG-31" style="edgeStyle=orthogonalEdgeStyle;rounded=0;orthogonalLoop=1;jettySize=auto;html=1;exitX=0;exitY=1;exitDx=0;exitDy=0;exitPerimeter=0;entryX=1;entryY=0.5;entryDx=0;entryDy=0;fillColor=#60a917;strokeColor=#2D7600;" parent="1" source="aVK8O0B2rPMwdk-hmoGI-8" target="LmFTSXichcNkXZxcfNyG-15" edge="1">
          <mxGeometry relative="1" as="geometry" />
        </mxCell>
        <mxCell id="aVK8O0B2rPMwdk-hmoGI-8" value="&lt;span style=&quot;background-color: rgb(5, 5, 5);&quot;&gt;&lt;font style=&quot;font-size: 14px;&quot;&gt;Praktikan&lt;/font&gt;&lt;/span&gt;" style="shape=umlActor;verticalLabelPosition=bottom;verticalAlign=top;html=1;outlineConnect=0;fillColor=#60a917;fontColor=#ffffff;strokeColor=#2D7600;" parent="1" vertex="1">
          <mxGeometry x="1410" y="-450" width="30" height="60" as="geometry" />
        </mxCell>
        <mxCell id="YMDOyxrxhtfnAnfaXzsU-1" value="&lt;font style=&quot;font-size: 24px;&quot;&gt;Login&lt;/font&gt;" style="ellipse;whiteSpace=wrap;html=1;fillColor=#0050ef;strokeColor=#001DBC;fontColor=#ffffff;" parent="1" vertex="1">
          <mxGeometry x="660" y="-350" width="130" height="80" as="geometry" />
        </mxCell>
        <mxCell id="qP-yLWMr7BC6t9WoD3ac-3" value="&lt;font style=&quot;font-size: 18px;&quot;&gt;Tugas&lt;/font&gt;" style="ellipse;whiteSpace=wrap;html=1;fillColor=#0050ef;fontColor=#ffffff;strokeColor=#001DBC;" parent="1" vertex="1">
          <mxGeometry x="640" y="220" width="130" height="80" as="geometry" />
        </mxCell>
        <mxCell id="qP-yLWMr7BC6t9WoD3ac-4" value="&lt;font style=&quot;font-size: 18px;&quot;&gt;Frekuensi&lt;/font&gt;" style="ellipse;whiteSpace=wrap;html=1;fillColor=#0050ef;fontColor=#ffffff;strokeColor=#001DBC;" parent="1" vertex="1">
          <mxGeometry x="640" y="20" width="130" height="80" as="geometry" />
        </mxCell>
        <mxCell id="qP-yLWMr7BC6t9WoD3ac-5" value="&lt;font style=&quot;font-size: 18px;&quot;&gt;Matakuliah&lt;br&gt;Praktikum&lt;/font&gt;" style="ellipse;whiteSpace=wrap;html=1;fillColor=#0050ef;fontColor=#ffffff;strokeColor=#001DBC;" parent="1" vertex="1">
          <mxGeometry x="1050" y="-100" width="130" height="80" as="geometry" />
        </mxCell>
        <mxCell id="LmFTSXichcNkXZxcfNyG-1" value="&lt;font style=&quot;font-size: 18px;&quot;&gt;Dosen&amp;nbsp;&lt;br&gt;Pengampuh&lt;br&gt;&lt;/font&gt;" style="ellipse;whiteSpace=wrap;html=1;fillColor=#0050ef;fontColor=#ffffff;strokeColor=#001DBC;" parent="1" vertex="1">
          <mxGeometry x="800" y="-240" width="130" height="80" as="geometry" />
        </mxCell>
        <mxCell id="LmFTSXichcNkXZxcfNyG-14" value="&lt;font style=&quot;font-size: 18px;&quot;&gt;CRUD&lt;/font&gt;" style="ellipse;whiteSpace=wrap;html=1;fillColor=#008a00;fontColor=#ffffff;strokeColor=#005700;" parent="1" vertex="1">
          <mxGeometry x="480" y="370" width="100" height="60" as="geometry" />
        </mxCell>
        <mxCell id="LmFTSXichcNkXZxcfNyG-15" value="&lt;font style=&quot;font-size: 18px;&quot;&gt;VIEW&lt;/font&gt;" style="ellipse;whiteSpace=wrap;html=1;fillColor=#008a00;fontColor=#ffffff;strokeColor=#005700;" parent="1" vertex="1">
          <mxGeometry x="830" y="360" width="100" height="60" as="geometry" />
        </mxCell>
        <mxCell id="LmFTSXichcNkXZxcfNyG-16" value="&lt;span style=&quot;font-size: 18px;&quot;&gt;ACC/REVISI&lt;/span&gt;" style="ellipse;whiteSpace=wrap;html=1;fillColor=#008a00;fontColor=#ffffff;strokeColor=#005700;" parent="1" vertex="1">
          <mxGeometry x="910" y="200" width="120" height="60" as="geometry" />
        </mxCell>
        <mxCell id="LmFTSXichcNkXZxcfNyG-20" value="&lt;font style=&quot;font-size: 14px;&quot;&gt;Extends&lt;/font&gt;" style="endArrow=block;endSize=16;endFill=0;html=1;rounded=0;exitX=0.5;exitY=0;exitDx=0;exitDy=0;entryX=0;entryY=1;entryDx=0;entryDy=0;fillColor=#e3c800;strokeColor=#B09500;" parent="1" source="LmFTSXichcNkXZxcfNyG-14" target="qP-yLWMr7BC6t9WoD3ac-3" edge="1">
          <mxGeometry width="160" relative="1" as="geometry">
            <mxPoint x="830" y="200" as="sourcePoint" />
            <mxPoint x="990" y="200" as="targetPoint" />
          </mxGeometry>
        </mxCell>
        <mxCell id="LmFTSXichcNkXZxcfNyG-21" value="&lt;font style=&quot;font-size: 14px;&quot;&gt;Extends&lt;/font&gt;" style="endArrow=block;endSize=16;endFill=0;html=1;rounded=0;entryX=0.5;entryY=1;entryDx=0;entryDy=0;exitX=0;exitY=0.5;exitDx=0;exitDy=0;fillColor=#e3c800;strokeColor=#B09500;" parent="1" source="LmFTSXichcNkXZxcfNyG-15" target="qP-yLWMr7BC6t9WoD3ac-3" edge="1">
          <mxGeometry width="160" relative="1" as="geometry">
            <mxPoint x="750" y="340" as="sourcePoint" />
            <mxPoint x="910" y="340" as="targetPoint" />
          </mxGeometry>
        </mxCell>
        <mxCell id="LmFTSXichcNkXZxcfNyG-22" value="&lt;font style=&quot;font-size: 14px;&quot;&gt;Extends&lt;/font&gt;" style="endArrow=block;endSize=16;endFill=0;html=1;rounded=0;entryX=1;entryY=0.5;entryDx=0;entryDy=0;exitX=0;exitY=0.5;exitDx=0;exitDy=0;fillColor=#e3c800;strokeColor=#B09500;" parent="1" source="LmFTSXichcNkXZxcfNyG-16" target="qP-yLWMr7BC6t9WoD3ac-3" edge="1">
          <mxGeometry width="160" relative="1" as="geometry">
            <mxPoint x="830" y="380" as="sourcePoint" />
            <mxPoint x="680" y="380" as="targetPoint" />
          </mxGeometry>
        </mxCell>
        <mxCell id="LmFTSXichcNkXZxcfNyG-23" value="&lt;font style=&quot;font-size: 18px;&quot;&gt;CRUD&lt;/font&gt;" style="ellipse;whiteSpace=wrap;html=1;fillColor=#008a00;fontColor=#ffffff;strokeColor=#005700;" parent="1" vertex="1">
          <mxGeometry x="880" y="30" width="100" height="60" as="geometry" />
        </mxCell>
        <mxCell id="LmFTSXichcNkXZxcfNyG-24" value="&lt;font style=&quot;font-size: 18px;&quot;&gt;CRUD&lt;/font&gt;" style="ellipse;whiteSpace=wrap;html=1;fillColor=#008a00;fontColor=#ffffff;strokeColor=#005700;" parent="1" vertex="1">
          <mxGeometry x="1065" y="70" width="100" height="60" as="geometry" />
        </mxCell>
        <mxCell id="LmFTSXichcNkXZxcfNyG-25" value="&lt;font style=&quot;font-size: 18px;&quot;&gt;CRUD&lt;/font&gt;" style="ellipse;whiteSpace=wrap;html=1;fillColor=#008a00;fontColor=#ffffff;strokeColor=#005700;" parent="1" vertex="1">
          <mxGeometry x="1080" y="-230" width="100" height="60" as="geometry" />
        </mxCell>
        <mxCell id="LmFTSXichcNkXZxcfNyG-26" value="&lt;font style=&quot;font-size: 14px;&quot;&gt;Extends&lt;/font&gt;" style="endArrow=block;endSize=16;endFill=0;html=1;rounded=0;entryX=1;entryY=0.5;entryDx=0;entryDy=0;exitX=0;exitY=0.5;exitDx=0;exitDy=0;fillColor=#e3c800;strokeColor=#B09500;" parent="1" source="LmFTSXichcNkXZxcfNyG-23" target="qP-yLWMr7BC6t9WoD3ac-4" edge="1">
          <mxGeometry width="160" relative="1" as="geometry">
            <mxPoint x="930" y="120" as="sourcePoint" />
            <mxPoint x="780" y="120" as="targetPoint" />
          </mxGeometry>
        </mxCell>
        <mxCell id="LmFTSXichcNkXZxcfNyG-27" value="&lt;font style=&quot;font-size: 14px;&quot;&gt;Extends&lt;/font&gt;" style="endArrow=block;endSize=16;endFill=0;html=1;rounded=0;entryX=0.5;entryY=1;entryDx=0;entryDy=0;exitX=0.5;exitY=0;exitDx=0;exitDy=0;fillColor=#e3c800;strokeColor=#B09500;" parent="1" source="LmFTSXichcNkXZxcfNyG-24" target="qP-yLWMr7BC6t9WoD3ac-5" edge="1">
          <mxGeometry width="160" relative="1" as="geometry">
            <mxPoint x="1320" y="30" as="sourcePoint" />
            <mxPoint x="1170" y="30" as="targetPoint" />
          </mxGeometry>
        </mxCell>
        <mxCell id="LmFTSXichcNkXZxcfNyG-28" value="&lt;font style=&quot;font-size: 14px;&quot;&gt;Extends&lt;/font&gt;" style="endArrow=block;endSize=16;endFill=0;html=1;rounded=0;entryX=1;entryY=0.5;entryDx=0;entryDy=0;exitX=0;exitY=0.5;exitDx=0;exitDy=0;fillColor=#e3c800;strokeColor=#B09500;" parent="1" source="LmFTSXichcNkXZxcfNyG-25" target="LmFTSXichcNkXZxcfNyG-1" edge="1">
          <mxGeometry width="160" relative="1" as="geometry">
            <mxPoint x="1110" y="-210" as="sourcePoint" />
            <mxPoint x="960" y="-210" as="targetPoint" />
          </mxGeometry>
        </mxCell>
        <mxCell id="c8wkgAsvFRAOuD-mgHTM-3" value="praktikan login pakai NIM&lt;br&gt;password devauld nanti diganti oleh praktikan&lt;br&gt;(sistem 11 12 sama siakad)" style="text;html=1;align=center;verticalAlign=middle;resizable=0;points=[];autosize=1;strokeColor=none;fillColor=none;" parent="1" vertex="1">
          <mxGeometry x="1215" y="-677" width="270" height="60" as="geometry" />
        </mxCell>
        <mxCell id="u8ytBh5eA0GfywoDB3Va-1" value="&lt;font style=&quot;font-size: 24px;&quot;&gt;Profile&lt;/font&gt;" style="ellipse;whiteSpace=wrap;html=1;fillColor=#0050ef;strokeColor=#001DBC;fontColor=#ffffff;" vertex="1" parent="1">
          <mxGeometry x="830" y="-540" width="130" height="80" as="geometry" />
        </mxCell>
        <mxCell id="u8ytBh5eA0GfywoDB3Va-2" value="&lt;font style=&quot;font-size: 18px;&quot;&gt;CRUD&lt;/font&gt;" style="ellipse;whiteSpace=wrap;html=1;fillColor=#008a00;fontColor=#ffffff;strokeColor=#005700;" vertex="1" parent="1">
          <mxGeometry x="845" y="-677" width="100" height="60" as="geometry" />
        </mxCell>
        <mxCell id="u8ytBh5eA0GfywoDB3Va-3" value="&lt;font style=&quot;font-size: 14px;&quot;&gt;Extends&lt;/font&gt;" style="endArrow=block;endSize=16;endFill=0;html=1;rounded=0;entryX=0.5;entryY=0;entryDx=0;entryDy=0;exitX=0.5;exitY=1;exitDx=0;exitDy=0;fillColor=#e3c800;strokeColor=#B09500;" edge="1" parent="1" source="u8ytBh5eA0GfywoDB3Va-2" target="u8ytBh5eA0GfywoDB3Va-1">
          <mxGeometry width="160" relative="1" as="geometry">
            <mxPoint x="1130" y="-600" as="sourcePoint" />
            <mxPoint x="980" y="-600" as="targetPoint" />
          </mxGeometry>
        </mxCell>
        <mxCell id="u8ytBh5eA0GfywoDB3Va-4" value="&lt;font style=&quot;font-size: 18px;&quot;&gt;VIEW&lt;/font&gt;" style="ellipse;whiteSpace=wrap;html=1;fillColor=#008a00;fontColor=#ffffff;strokeColor=#005700;" vertex="1" parent="1">
          <mxGeometry x="670" y="-640" width="100" height="60" as="geometry" />
        </mxCell>
        <mxCell id="u8ytBh5eA0GfywoDB3Va-5" value="&lt;font style=&quot;font-size: 14px;&quot;&gt;Extends&lt;/font&gt;" style="endArrow=block;endSize=16;endFill=0;html=1;rounded=0;exitX=0.5;exitY=1;exitDx=0;exitDy=0;fillColor=#e3c800;strokeColor=#B09500;entryX=0;entryY=0;entryDx=0;entryDy=0;" edge="1" parent="1" source="u8ytBh5eA0GfywoDB3Va-4" target="u8ytBh5eA0GfywoDB3Va-1">
          <mxGeometry width="160" relative="1" as="geometry">
            <mxPoint x="905" y="-607" as="sourcePoint" />
            <mxPoint x="941" y="-528" as="targetPoint" />
          </mxGeometry>
        </mxCell>
      </root>
    </mxGraphModel>
  </diagram>
</mxfile>
